<?xml version="1.0" encoding="UTF-8"?>
<svg id="Layer_1" data-name="Layer 1" xmlns="http://www.w3.org/2000/svg" viewBox="0 0 467.98 800">
  <defs>
    <style>
      .cls-1 {
        stroke-width: 9.11px;
      }

      .cls-1, .cls-2 {
        stroke: #000;
      }

      .cls-1, .cls-2, .cls-3 {
        fill: none;
        stroke-miterlimit: 10;
      }

      .cls-2 {
        stroke-width: 7.45px;
      }

      .cls-3 {
        stroke: #0082fc;
        stroke-width: 7.97px;
      }
    </style>
  </defs>
  <g>
    <line class="cls-1" x1="300.98" y1="479.58" x2="311.45" y2="479.58"/>
    <path class="cls-1" d="M149.54,672.96v-191.76c0-17.96,14.7-32.66,32.66-32.66h123.24c17.96,0,32.66,14.7,32.66,32.66v238.5c0,17.96-14.7,32.66-32.66,32.66h-123.24c-17.96,0-32.66-14.7-32.66-32.66v-20.62h161.81"/>
    <line class="cls-1" x1="217.89" y1="731.52" x2="269.95" y2="731.52"/>
    <polyline class="cls-1" points="178.16 673.94 179.58 479.51 289.67 479.51"/>
  </g>
  <g>
    <path class="cls-2" d="M414.74,214.02v-118.38s0-22.98,0-22.98c0-14.25-11.55-25.8-25.8-25.8h-8.52s0,34.2,0,34.2h24.38"/>
    <line class="cls-2" x1="366.61" y1="84.41" x2="366.61" y2="43.09"/>
  </g>
  <g>
    <path class="cls-2" d="M53.31,204.53v-105.26s0-22.98,0-22.98c0-14.25,11.55-25.8,25.8-25.8h8.52v34.2h-24.38"/>
    <line class="cls-2" x1="101.2" y1="88.17" x2="101.2" y2="46.85"/>
    <line class="cls-2" x1="53.24" y1="211.34" x2="53.24" y2="218.18"/>
  </g>
  <path class="cls-3" d="M67.04,244.54s143.53,143.53,166.88,166.88c23.35-23.35,166.87-166.88,166.87-166.88"/>
</svg>