<?xml version="1.0" encoding="UTF-8"?>
<svg id="Layer_1" data-name="Layer 1" xmlns="http://www.w3.org/2000/svg" viewBox="0 0 500 521">
  <defs>
    <style>
      .cls-1 {
        fill: #999;
        stroke: #999;
        stroke-miterlimit: 10;
        stroke-width: .25px;
      }

      .cls-2 {
        fill: #646569;
      }

      .cls-3 {
        fill: none;
      }

      .cls-4 {
        fill: #231f20;
      }

      .cls-5 {
        fill: #cd3cff;
      }

      .cls-6 {
        fill: #0082fc;
      }
    </style>
  </defs>
  <g>
    <path class="cls-4" d="M78.88,72.75v-18.19h6.96c1.31,0,2.4.21,3.27.62.87.41,1.52.97,1.95,1.68.44.71.65,1.52.65,2.42,0,1.11-.31,1.98-.92,2.61-.61.63-1.37,1.05-2.25,1.26v.18c.64.03,1.26.23,1.86.59.59.36,1.08.86,1.46,1.51.38.65.57,1.44.57,2.36s-.23,1.79-.68,2.54c-.46.75-1.14,1.34-2.06,1.77-.92.43-2.07.65-3.46.65h-7.34ZM82.14,62.31h3.28c.86,0,1.58-.23,2.16-.7.58-.47.87-1.1.87-1.91,0-.71-.25-1.29-.74-1.75-.5-.46-1.23-.68-2.21-.68h-3.36v5.04ZM82.14,70.02h3.56c1.2,0,2.07-.23,2.61-.7.53-.46.8-1.06.8-1.78,0-.81-.3-1.5-.89-2.05-.59-.55-1.4-.83-2.4-.83h-3.67v5.36Z"/>
    <path class="cls-4" d="M98.24,54.56v18.19h-3.17v-18.19h3.17Z"/>
    <path class="cls-4" d="M106.01,72.92c-1.41,0-2.54-.45-3.39-1.34-.85-.9-1.28-2.16-1.28-3.8v-8.68h3.17v8.19c0,.91.24,1.63.71,2.15.48.52,1.13.78,1.96.78s1.54-.27,2.09-.82.82-1.31.82-2.31v-8h3.19v13.65h-3.02l-.02-2.73c-.81,1.94-2.22,2.91-4.22,2.91Z"/>
    <path class="cls-4" d="M122.67,73.03c-1.38,0-2.56-.29-3.55-.87-.99-.58-1.75-1.39-2.28-2.44-.53-1.05-.8-2.29-.8-3.71s.26-2.63.79-3.69c.52-1.06,1.27-1.89,2.23-2.49.96-.6,2.1-.9,3.4-.9,1.11,0,2.13.24,3.08.73.95.48,1.71,1.23,2.29,2.25.58,1.01.87,2.32.87,3.91v1h-9.5c.04,1.21.38,2.14,1.02,2.77.64.63,1.47.95,2.48.95.7,0,1.3-.15,1.8-.45.5-.3.86-.74,1.07-1.32l2.92.6c-.33,1.1-1,1.98-2.02,2.65-1.02.67-2.29,1.01-3.8,1.01ZM119.21,64.65h6.4c-.1-.98-.41-1.76-.93-2.35-.52-.59-1.26-.88-2.2-.88s-1.74.31-2.3.93c-.57.62-.89,1.39-.96,2.3Z"/>
    <path class="cls-4" d="M137.73,59.1v2.49h-2.64v7.31c0,.5.1.86.31,1.09.21.23.56.35,1.04.35.15,0,.34-.02.57-.06.24-.04.43-.07.59-.1l.5,2.45c-.35.11-.71.18-1.07.23-.37.04-.72.07-1.05.07-1.31,0-2.32-.33-3.02-.98-.7-.65-1.05-1.58-1.05-2.78v-7.58h-1.94v-2.49h1.94v-3.25h3.17v3.25h2.64Z"/>
    <path class="cls-4" d="M146.02,73.03c-1.33,0-2.48-.29-3.45-.89-.98-.59-1.73-1.41-2.26-2.47-.53-1.05-.8-2.28-.8-3.68s.27-2.65.8-3.72c.53-1.06,1.29-1.89,2.26-2.47s2.13-.88,3.45-.88,2.48.29,3.45.88,1.73,1.41,2.27,2.47c.54,1.06.81,2.3.81,3.72s-.27,2.63-.81,3.68c-.54,1.05-1.29,1.88-2.27,2.47-.98.59-2.13.89-3.45.89ZM146.02,70.45c.74,0,1.35-.2,1.84-.6.49-.4.85-.94,1.1-1.61.24-.68.37-1.43.37-2.26s-.12-1.59-.37-2.27c-.24-.68-.61-1.21-1.1-1.61-.49-.4-1.1-.6-1.84-.6s-1.34.2-1.83.6c-.49.4-.85.94-1.09,1.61-.24.68-.36,1.43-.36,2.27s.12,1.58.36,2.26c.24.68.6,1.21,1.09,1.61.49.4,1.1.6,1.83.6Z"/>
    <path class="cls-4" d="M161.46,73.03c-1.33,0-2.48-.29-3.45-.89-.98-.59-1.73-1.41-2.26-2.47-.53-1.05-.8-2.28-.8-3.68s.27-2.65.8-3.72c.53-1.06,1.29-1.89,2.26-2.47s2.13-.88,3.45-.88,2.48.29,3.45.88,1.73,1.41,2.27,2.47c.54,1.06.81,2.3.81,3.72s-.27,2.63-.81,3.68c-.54,1.05-1.29,1.88-2.27,2.47-.98.59-2.13.89-3.45.89ZM161.46,70.45c.74,0,1.35-.2,1.84-.6.49-.4.85-.94,1.1-1.61.24-.68.37-1.43.37-2.26s-.12-1.59-.37-2.27c-.24-.68-.61-1.21-1.1-1.61-.49-.4-1.1-.6-1.84-.6s-1.34.2-1.83.6c-.49.4-.85.94-1.09,1.61-.24.68-.36,1.43-.36,2.27s.12,1.58.36,2.26c.24.68.6,1.21,1.09,1.61.49.4,1.1.6,1.83.6Z"/>
    <path class="cls-4" d="M176.83,59.1v2.49h-2.64v7.31c0,.5.1.86.31,1.09.21.23.56.35,1.04.35.15,0,.34-.02.57-.06.24-.04.43-.07.59-.1l.5,2.45c-.35.11-.71.18-1.07.23-.37.04-.72.07-1.05.07-1.31,0-2.32-.33-3.02-.98-.7-.65-1.05-1.58-1.05-2.78v-7.58h-1.94v-2.49h1.94v-3.25h3.17v3.25h2.64Z"/>
    <path class="cls-4" d="M182.64,64.75v8h-3.17v-18.19h3.12v7.07c.83-1.8,2.21-2.7,4.14-2.7,1.41,0,2.54.45,3.39,1.34.85.9,1.28,2.16,1.28,3.8v8.68h-3.19v-8.19c0-.91-.24-1.63-.71-2.15-.47-.52-1.12-.78-1.95-.78s-1.54.27-2.09.82c-.55.55-.82,1.31-.82,2.31Z"/>
    <path class="cls-4" d="M206.99,73.03c-1.33,0-2.48-.29-3.45-.89-.98-.59-1.73-1.41-2.26-2.47-.53-1.05-.8-2.28-.8-3.68s.27-2.65.8-3.72c.53-1.06,1.29-1.89,2.26-2.47s2.13-.88,3.45-.88c1.52,0,2.81.38,3.86,1.14,1.05.76,1.73,1.81,2.02,3.14l-2.97.62c-.17-.71-.5-1.27-1-1.7-.5-.42-1.13-.63-1.89-.63-1.11,0-1.94.43-2.48,1.28-.55.85-.82,1.92-.82,3.2,0,.84.12,1.6.37,2.27.24.68.61,1.21,1.1,1.61.49.39,1.1.59,1.84.59.78,0,1.42-.22,1.92-.67.5-.44.84-1.03,1.01-1.76l2.97.62c-.29,1.36-.97,2.43-2.03,3.21-1.06.78-2.36,1.17-3.89,1.17Z"/>
    <path class="cls-4" d="M221.68,73.03c-1.33,0-2.48-.29-3.45-.89-.98-.59-1.73-1.41-2.26-2.47-.53-1.05-.8-2.28-.8-3.68s.27-2.65.8-3.72c.53-1.06,1.29-1.89,2.26-2.47s2.13-.88,3.45-.88,2.48.29,3.45.88,1.73,1.41,2.27,2.47c.54,1.06.81,2.3.81,3.72s-.27,2.63-.81,3.68c-.54,1.05-1.29,1.88-2.27,2.47-.98.59-2.13.89-3.45.89ZM221.68,70.45c.74,0,1.35-.2,1.84-.6.49-.4.85-.94,1.1-1.61.24-.68.37-1.43.37-2.26s-.12-1.59-.37-2.27c-.24-.68-.61-1.21-1.1-1.61-.49-.4-1.1-.6-1.84-.6s-1.34.2-1.83.6c-.49.4-.85.94-1.09,1.61-.24.68-.36,1.43-.36,2.27s.12,1.58.36,2.26c.24.68.6,1.21,1.09,1.61.49.4,1.1.6,1.83.6Z"/>
    <path class="cls-4" d="M236.14,72.99c-1.07,0-2.04-.27-2.89-.82-.85-.55-1.52-1.35-2.01-2.4s-.73-2.32-.73-3.82.25-2.79.74-3.84c.5-1.05,1.17-1.84,2.02-2.37.85-.54,1.8-.81,2.85-.81.81,0,1.48.14,2,.41.52.27.93.6,1.23.98.3.38.53.73.7,1.04h.13v-6.8h3.17v18.19h-3.11v-2.16h-.2c-.17.33-.41.68-.72,1.05-.31.37-.72.69-1.24.96-.52.26-1.17.4-1.95.4ZM237,70.38c1.03,0,1.83-.41,2.39-1.23.56-.82.84-1.89.84-3.22s-.28-2.39-.84-3.19c-.56-.8-1.36-1.2-2.4-1.2s-1.88.42-2.43,1.25c-.55.83-.82,1.88-.82,3.15s.27,2.34.82,3.18c.55.84,1.36,1.26,2.42,1.26Z"/>
    <path class="cls-4" d="M252.87,73.03c-1.38,0-2.56-.29-3.55-.87-.99-.58-1.75-1.39-2.28-2.44-.53-1.05-.8-2.29-.8-3.71s.26-2.63.79-3.69c.52-1.06,1.27-1.89,2.23-2.49.96-.6,2.1-.9,3.4-.9,1.11,0,2.13.24,3.08.73.95.48,1.71,1.23,2.29,2.25.58,1.01.87,2.32.87,3.91v1h-9.5c.04,1.21.38,2.14,1.02,2.77s1.47.95,2.48.95c.7,0,1.3-.15,1.8-.45.5-.3.86-.74,1.07-1.32l2.92.6c-.33,1.1-1,1.98-2.02,2.65-1.02.67-2.29,1.01-3.8,1.01ZM249.41,64.65h6.4c-.1-.98-.41-1.76-.93-2.35-.53-.59-1.26-.88-2.2-.88s-1.74.31-2.3.93c-.57.62-.89,1.39-.96,2.3Z"/>
    <path class="cls-4" d="M267.66,73.03c-1.33,0-2.48-.29-3.46-.89-.98-.59-1.73-1.41-2.26-2.47-.53-1.05-.8-2.28-.8-3.68s.27-2.65.8-3.72c.53-1.06,1.29-1.89,2.26-2.47s2.13-.88,3.46-.88c1.52,0,2.81.38,3.86,1.14,1.05.76,1.73,1.81,2.02,3.14l-2.97.62c-.17-.71-.5-1.27-1-1.7-.5-.42-1.13-.63-1.89-.63-1.11,0-1.93.43-2.48,1.28-.55.85-.82,1.92-.82,3.2,0,.84.12,1.6.37,2.27.24.68.61,1.21,1.1,1.61.49.39,1.1.59,1.84.59.78,0,1.42-.22,1.92-.67.5-.44.84-1.03,1.01-1.76l2.97.62c-.29,1.36-.97,2.43-2.03,3.21s-2.36,1.17-3.89,1.17Z"/>
    <path class="cls-4" d="M288.78,73.03c-1.33,0-2.48-.29-3.46-.89-.98-.59-1.73-1.41-2.26-2.47-.53-1.05-.8-2.28-.8-3.68s.27-2.65.8-3.72c.53-1.06,1.29-1.89,2.26-2.47s2.13-.88,3.46-.88c1.52,0,2.81.38,3.86,1.14,1.05.76,1.73,1.81,2.02,3.14l-2.97.62c-.17-.71-.5-1.27-1-1.7-.5-.42-1.13-.63-1.89-.63-1.11,0-1.93.43-2.48,1.28-.55.85-.82,1.92-.82,3.2,0,.84.12,1.6.37,2.27.24.68.61,1.21,1.1,1.61.49.39,1.1.59,1.84.59.78,0,1.42-.22,1.92-.67.5-.44.84-1.03,1.01-1.76l2.97.62c-.29,1.36-.97,2.43-2.03,3.21s-2.36,1.17-3.89,1.17Z"/>
    <path class="cls-4" d="M303.46,73.03c-1.33,0-2.48-.29-3.46-.89-.98-.59-1.73-1.41-2.26-2.47-.53-1.05-.8-2.28-.8-3.68s.27-2.65.8-3.72c.53-1.06,1.29-1.89,2.26-2.47s2.13-.88,3.46-.88,2.48.29,3.45.88,1.73,1.41,2.27,2.47c.54,1.06.81,2.3.81,3.72s-.27,2.63-.81,3.68c-.54,1.05-1.29,1.88-2.27,2.47-.98.59-2.13.89-3.45.89ZM303.46,70.45c.74,0,1.35-.2,1.84-.6.49-.4.85-.94,1.1-1.61.24-.68.37-1.43.37-2.26s-.12-1.59-.37-2.27c-.24-.68-.61-1.21-1.1-1.61-.49-.4-1.1-.6-1.84-.6s-1.34.2-1.83.6c-.49.4-.85.94-1.09,1.61-.24.68-.36,1.43-.36,2.27s.12,1.58.36,2.26c.24.68.6,1.21,1.09,1.61.49.4,1.1.6,1.83.6Z"/>
    <path class="cls-4" d="M312.89,72.75v-13.65h2.98l.1,2.6c.36-.97.89-1.68,1.59-2.14.7-.46,1.46-.68,2.28-.68,1.74,0,2.91.99,3.5,2.97.37-.98.94-1.73,1.73-2.22.79-.5,1.66-.74,2.62-.74,1.23,0,2.26.4,3.09,1.2.83.8,1.25,1.95,1.25,3.47v9.2h-3.19v-8.72c0-.85-.23-1.46-.69-1.86s-1.01-.59-1.67-.59c-.77,0-1.38.24-1.82.72-.44.48-.66,1.1-.66,1.87v8.57h-3.1v-8.86c0-.69-.22-1.25-.65-1.67-.43-.42-.98-.63-1.66-.63s-1.3.24-1.79.71c-.5.48-.75,1.17-.75,2.08v8.36h-3.17Z"/>
    <path class="cls-4" d="M335.52,77.85v-18.75h3.1v2.26h.21c.16-.32.38-.67.68-1.04.3-.38.71-.7,1.23-.98.52-.27,1.18-.41,1.99-.41,1.05,0,2,.27,2.85.81s1.53,1.33,2.03,2.37c.5,1.05.75,2.33.75,3.84s-.25,2.77-.74,3.82c-.49,1.05-1.16,1.85-2.01,2.4-.85.55-1.81.82-2.89.82-.78,0-1.43-.13-1.95-.4-.52-.26-.93-.58-1.24-.96-.31-.37-.55-.72-.71-1.05h-.13v7.26h-3.17ZM341.87,70.38c1.06,0,1.86-.42,2.41-1.26.55-.84.82-1.9.82-3.18s-.27-2.32-.81-3.15-1.35-1.25-2.42-1.25-1.85.4-2.41,1.2c-.55.8-.83,1.87-.83,3.19s.28,2.4.84,3.22c.56.82,1.36,1.23,2.39,1.23Z"/>
    <path class="cls-4" d="M355.06,73.03c-.86,0-1.64-.16-2.33-.47-.69-.31-1.24-.77-1.64-1.39-.4-.61-.6-1.36-.6-2.26,0-1.03.25-1.82.75-2.39.5-.57,1.15-.98,1.94-1.23.79-.26,1.63-.43,2.51-.52,1.19-.13,2.05-.25,2.58-.36.53-.11.79-.4.79-.87v-.06c0-.67-.2-1.19-.61-1.56-.41-.37-1-.56-1.77-.56s-1.43.18-1.9.52c-.47.35-.79.75-.95,1.2l-2.94-.6c.4-1.2,1.12-2.1,2.17-2.69,1.04-.59,2.25-.88,3.62-.88.64,0,1.29.08,1.95.23.65.15,1.25.4,1.8.76.55.35.99.83,1.32,1.44.33.61.5,1.37.5,2.28v9.12h-3.04v-1.88h-.12c-.3.59-.78,1.09-1.44,1.52-.66.43-1.52.64-2.58.64ZM355.88,70.67c.98,0,1.76-.28,2.34-.84s.87-1.22.87-1.98v-1.61c-.15.11-.41.21-.78.3-.37.08-.77.16-1.19.22-.42.06-.77.11-1.04.15-.72.1-1.31.29-1.79.59-.48.29-.71.75-.71,1.38,0,.59.22,1.03.65,1.34.43.31.99.46,1.66.46Z"/>
    <path class="cls-4" d="M365.73,72.75v-13.65h3.08v2.28h.15c.24-.79.67-1.4,1.28-1.82.61-.43,1.31-.64,2.09-.64.41,0,.79.03,1.16.09v2.92c-.13-.03-.34-.07-.63-.1-.29-.04-.58-.05-.87-.05-.89,0-1.62.27-2.2.82-.58.55-.87,1.26-.87,2.13v8.03h-3.17Z"/>
    <path class="cls-4" d="M377.37,57.17c-.5,0-.94-.17-1.3-.51-.36-.34-.54-.75-.54-1.24s.18-.89.54-1.23c.36-.34.79-.51,1.3-.51s.95.17,1.31.51c.36.34.54.75.54,1.23s-.18.9-.54,1.24c-.36.34-.8.51-1.31.51ZM375.78,72.75v-13.65h3.17v13.65h-3.17Z"/>
    <path class="cls-4" d="M387.61,73.03c-1.57,0-2.87-.34-3.89-1.01-1.02-.67-1.65-1.62-1.89-2.86l2.97-.56c.36,1.33,1.31,2,2.87,2,.78,0,1.4-.16,1.86-.47.46-.31.69-.7.69-1.17,0-.77-.62-1.29-1.84-1.56l-2.33-.5c-2.55-.55-3.83-1.83-3.83-3.82,0-.85.23-1.58.7-2.2.46-.62,1.11-1.1,1.93-1.44s1.78-.51,2.88-.51c1.55,0,2.77.32,3.67.96.9.64,1.49,1.49,1.76,2.55l-2.83.56c-.16-.47-.45-.87-.86-1.21-.41-.33-.98-.5-1.71-.5-.67,0-1.23.15-1.68.45-.46.3-.68.68-.68,1.14,0,.4.15.73.45.98.3.26.79.46,1.5.62l2.32.49c2.55.55,3.82,1.77,3.82,3.69,0,.86-.25,1.62-.74,2.28-.5.65-1.19,1.17-2.07,1.54-.88.37-1.9.56-3.05.56Z"/>
    <path class="cls-4" d="M402.23,73.03c-1.33,0-2.48-.29-3.46-.89-.98-.59-1.73-1.41-2.26-2.47-.53-1.05-.8-2.28-.8-3.68s.27-2.65.8-3.72c.53-1.06,1.29-1.89,2.26-2.47s2.13-.88,3.46-.88,2.48.29,3.45.88,1.73,1.41,2.27,2.47c.54,1.06.81,2.3.81,3.72s-.27,2.63-.81,3.68c-.54,1.05-1.29,1.88-2.27,2.47-.98.59-2.13.89-3.45.89ZM402.23,70.45c.74,0,1.35-.2,1.84-.6.49-.4.85-.94,1.1-1.61.24-.68.37-1.43.37-2.26s-.12-1.59-.37-2.27c-.24-.68-.61-1.21-1.1-1.61-.49-.4-1.1-.6-1.84-.6s-1.34.2-1.83.6c-.49.4-.85.94-1.09,1.61-.24.68-.36,1.43-.36,2.27s.12,1.58.36,2.26c.24.68.6,1.21,1.09,1.61.49.4,1.1.6,1.83.6Z"/>
    <path class="cls-4" d="M414.83,64.75v8h-3.17v-13.65h3l.04,2.72c.81-1.93,2.22-2.89,4.22-2.89,1.41,0,2.54.45,3.39,1.34.85.9,1.28,2.16,1.28,3.8v8.68h-3.17v-8.19c0-.91-.24-1.63-.71-2.15-.47-.52-1.12-.78-1.95-.78s-1.54.27-2.09.82c-.55.55-.82,1.31-.82,2.31Z"/>
    <path class="cls-4" d="M120.85,96.98c-1.07,0-1.96-.24-2.66-.73s-1.15-1.19-1.34-2.1l1.27-.3c.16.66.47,1.15.93,1.47s1.06.48,1.78.48c.83,0,1.49-.19,1.99-.56s.75-.83.75-1.39c0-.89-.59-1.47-1.78-1.76l-1.78-.43c-1.87-.45-2.8-1.42-2.8-2.9,0-.61.16-1.15.49-1.61s.78-.82,1.36-1.08,1.23-.39,1.97-.39c1.03,0,1.84.23,2.45.7s1.03,1.09,1.28,1.88l-1.21.31c-.17-.5-.45-.92-.84-1.25s-.95-.49-1.67-.49-1.32.17-1.79.52-.7.79-.7,1.33c0,.9.65,1.5,1.95,1.82l1.67.4c1.84.44,2.76,1.4,2.76,2.87,0,.62-.17,1.18-.52,1.66s-.83.86-1.44,1.13-1.32.41-2.12.41Z"/>
    <path class="cls-4" d="M131.49,85.83v1.15h-2.25v7.19c0,1.09.49,1.59,1.46,1.49.09,0,.2-.01.34-.03s.26-.05.38-.07l.27,1.14c-.28.09-.61.14-1,.16-.87.06-1.55-.15-2.04-.62s-.74-1.13-.74-1.98v-7.28h-1.62v-1.15h1.62v-2.6h1.33v2.6h2.25Z"/>
    <path class="cls-4" d="M136.73,96.99c-.66,0-1.27-.13-1.81-.39s-.98-.63-1.3-1.12-.48-1.09-.48-1.8.18-1.29.54-1.71.85-.75,1.48-.97,1.36-.38,2.18-.47c.9-.11,1.61-.21,2.1-.3s.75-.35.75-.76v-.25c0-.73-.22-1.3-.66-1.72s-1.07-.63-1.89-.63-1.41.17-1.9.51-.82.74-1.01,1.2l-1.27-.43c.24-.59.58-1.07,1.02-1.43s.93-.62,1.47-.79,1.1-.25,1.67-.25c.43,0,.87.06,1.33.17s.88.31,1.27.58.71.64.95,1.11.36,1.07.36,1.79v7.41h-1.3v-1.73h-.1c-.24.5-.64.96-1.21,1.36s-1.29.61-2.17.61ZM136.93,95.81c.66,0,1.24-.15,1.73-.44s.87-.69,1.13-1.18.4-1.03.4-1.63v-1.55c-.12.12-.36.22-.7.31s-.72.16-1.11.21-.74.1-1.03.14c-.92.11-1.63.32-2.13.64s-.75.8-.75,1.44.23,1.16.7,1.52,1.05.54,1.76.54Z"/>
    <path class="cls-4" d="M146.28,89.94v6.81h-1.33v-10.92h1.28v2.01c.34-.76.81-1.3,1.41-1.65s1.27-.51,2.01-.51c1.11,0,2.01.34,2.7,1.03s1.04,1.68,1.04,2.97v7.06h-1.32v-6.96c0-.89-.25-1.6-.75-2.11s-1.17-.78-2.01-.78-1.58.27-2.15.82-.86,1.29-.86,2.23Z"/>
    <path class="cls-4" d="M160.72,96.98c-.89,0-1.67-.24-2.34-.71s-1.19-1.13-1.57-1.98-.56-1.84-.56-2.97.19-2.11.57-2.95.9-1.5,1.58-1.97,1.45-.71,2.34-.71c.66,0,1.22.12,1.66.36s.8.53,1.07.87.48.68.62,1.02h.11v-5.73h1.32v14.55h-1.28v-2.04h-.15c-.14.34-.35.68-.62,1.04s-.63.65-1.08.88-1,.36-1.66.36ZM160.9,95.78c.7,0,1.3-.19,1.79-.58s.87-.91,1.12-1.59.39-1.44.39-2.31-.13-1.63-.39-2.29-.63-1.19-1.12-1.56-1.09-.57-1.79-.57-1.32.2-1.81.59-.86.92-1.12,1.59-.38,1.42-.38,2.25.13,1.6.39,2.27.63,1.21,1.12,1.61,1.09.6,1.8.6Z"/>
    <path class="cls-4" d="M171.83,96.99c-.66,0-1.27-.13-1.81-.39s-.98-.63-1.3-1.12-.48-1.09-.48-1.8.18-1.29.54-1.71.85-.75,1.48-.97,1.36-.38,2.18-.47c.9-.11,1.61-.21,2.1-.3s.75-.35.75-.76v-.25c0-.73-.22-1.3-.66-1.72s-1.07-.63-1.89-.63-1.41.17-1.9.51-.82.74-1.01,1.2l-1.27-.43c.24-.59.58-1.07,1.02-1.43s.93-.62,1.47-.79,1.1-.25,1.67-.25c.43,0,.87.06,1.33.17s.88.31,1.27.58.71.64.95,1.11.36,1.07.36,1.79v7.41h-1.3v-1.73h-.1c-.24.5-.64.96-1.21,1.36s-1.29.61-2.17.61ZM172.02,95.81c.66,0,1.24-.15,1.73-.44s.87-.69,1.13-1.18.4-1.03.4-1.63v-1.55c-.12.12-.36.22-.7.31s-.72.16-1.11.21-.74.1-1.03.14c-.92.11-1.63.32-2.13.64s-.75.8-.75,1.44.23,1.16.7,1.52,1.05.54,1.76.54Z"/>
    <path class="cls-4" d="M180.04,96.75v-10.92h1.29v1.7h.1c.21-.56.59-1.01,1.14-1.34s1.15-.5,1.83-.5c.1,0,.22,0,.35,0s.24,0,.32.01v1.33s-.14-.02-.29-.04-.31-.03-.49-.03c-.85,0-1.54.26-2.09.79s-.83,1.19-.83,2v7h-1.33Z"/>
    <path class="cls-4" d="M191.24,96.98c-.89,0-1.67-.24-2.34-.71s-1.19-1.13-1.57-1.98-.56-1.84-.56-2.97.19-2.11.57-2.95.9-1.5,1.58-1.97,1.45-.71,2.34-.71c.66,0,1.22.12,1.66.36s.8.53,1.07.87.48.68.62,1.02h.11v-5.73h1.32v14.55h-1.28v-2.04h-.15c-.14.34-.35.68-.62,1.04s-.63.65-1.08.88-1,.36-1.66.36ZM191.41,95.78c.7,0,1.3-.19,1.79-.58s.87-.91,1.12-1.59.39-1.44.39-2.31-.13-1.63-.39-2.29-.63-1.19-1.12-1.56-1.09-.57-1.79-.57-1.32.2-1.81.59-.86.92-1.12,1.59-.38,1.42-.38,2.25.13,1.6.39,2.27.63,1.21,1.12,1.61,1.09.6,1.8.6Z"/>
    <path class="cls-4" d="M208.67,96.98c-1.07,0-1.96-.24-2.66-.73s-1.15-1.19-1.34-2.1l1.27-.3c.16.66.47,1.15.93,1.47s1.06.48,1.78.48c.83,0,1.49-.19,1.99-.56s.75-.83.75-1.39c0-.89-.59-1.47-1.78-1.76l-1.78-.43c-1.87-.45-2.8-1.42-2.8-2.9,0-.61.16-1.15.49-1.61s.78-.82,1.36-1.08,1.23-.39,1.97-.39c1.03,0,1.84.23,2.45.7s1.03,1.09,1.28,1.88l-1.21.31c-.17-.5-.45-.92-.84-1.25s-.95-.49-1.67-.49-1.32.17-1.79.52-.7.79-.7,1.33c0,.9.65,1.5,1.95,1.82l1.67.4c1.84.44,2.76,1.4,2.76,2.87,0,.62-.17,1.18-.52,1.66s-.83.86-1.44,1.13-1.32.41-2.12.41Z"/>
    <path class="cls-4" d="M219.31,85.83v1.15h-2.25v7.19c0,1.09.49,1.59,1.46,1.49.09,0,.2-.01.34-.03s.26-.05.38-.07l.27,1.14c-.28.09-.61.14-1,.16-.87.06-1.55-.15-2.04-.62s-.74-1.13-.74-1.98v-7.28h-1.62v-1.15h1.62v-2.6h1.33v2.6h2.25Z"/>
    <path class="cls-4" d="M226.11,96.98c-1.02,0-1.91-.24-2.65-.72s-1.32-1.14-1.73-1.99-.61-1.82-.61-2.92.2-2.08.6-2.93.96-1.52,1.68-2.01,1.55-.73,2.5-.73c.79,0,1.55.2,2.26.59s1.29.99,1.73,1.79.66,1.82.66,3.06v.58h-8.1c.03,1.24.37,2.24,1.03,2.98s1.54,1.12,2.64,1.12c.76,0,1.39-.18,1.88-.53s.83-.77,1.04-1.25l1.26.4c-.25.68-.73,1.28-1.45,1.8s-1.63.77-2.73.77ZM222.46,90.55h6.76c-.07-1.06-.4-1.94-.98-2.63s-1.36-1.04-2.33-1.04c-.66,0-1.24.17-1.74.5s-.9.78-1.2,1.33-.47,1.17-.51,1.84Z"/>
    <path class="cls-4" d="M233.38,96.75v-10.92h1.29v1.7h.1c.21-.56.59-1.01,1.14-1.34s1.15-.5,1.83-.5c.1,0,.22,0,.35,0s.24,0,.32.01v1.33s-.14-.02-.29-.04-.31-.03-.49-.03c-.85,0-1.54.26-2.09.79s-.83,1.19-.83,2v7h-1.33Z"/>
    <path class="cls-4" d="M245.09,96.98c-1.02,0-1.91-.24-2.65-.72s-1.32-1.14-1.73-1.99-.61-1.82-.61-2.92.2-2.08.6-2.93.96-1.52,1.68-2.01,1.55-.73,2.5-.73c.79,0,1.55.2,2.26.59s1.29.99,1.73,1.79.66,1.82.66,3.06v.58h-8.1c.03,1.24.37,2.24,1.03,2.98s1.54,1.12,2.64,1.12c.76,0,1.39-.18,1.88-.53s.83-.77,1.04-1.25l1.26.4c-.25.68-.73,1.28-1.45,1.8s-1.63.77-2.73.77ZM241.44,90.55h6.76c-.07-1.06-.4-1.94-.98-2.63s-1.36-1.04-2.33-1.04c-.66,0-1.24.17-1.74.5s-.9.78-1.2,1.33-.47,1.17-.51,1.84Z"/>
    <path class="cls-4" d="M256.61,96.98c-.95,0-1.79-.24-2.51-.72s-1.29-1.14-1.7-1.99-.62-1.82-.62-2.93.21-2.1.62-2.95.98-1.51,1.7-1.99,1.56-.72,2.51-.72,1.78.24,2.51.72c.72.48,1.29,1.14,1.7,1.99s.62,1.83.62,2.95-.21,2.08-.62,2.93-.98,1.51-1.7,1.99c-.73.48-1.56.72-2.51.72ZM256.61,95.78c.75,0,1.38-.2,1.9-.61s.91-.94,1.19-1.61.41-1.41.41-2.22-.14-1.56-.41-2.23-.67-1.21-1.19-1.62c-.52-.41-1.15-.61-1.89-.61s-1.37.2-1.89.61-.91.95-1.19,1.62-.41,1.42-.41,2.23.13,1.55.41,2.22c.27.67.67,1.21,1.19,1.61.52.4,1.15.61,1.89.61Z"/>
    <path class="cls-4" d="M271.36,82.2v14.55h-1.33v-14.55h1.33Z"/>
    <path class="cls-4" d="M275.48,83.81c-.27,0-.5-.09-.68-.27s-.28-.4-.28-.65.09-.47.28-.65.42-.27.68-.27.5.09.68.27.28.4.28.65-.09.47-.28.65-.42.27-.68.27ZM274.8,96.75v-10.92h1.33v10.92h-1.33Z"/>
    <path class="cls-4" d="M283.05,96.98c-1.07,0-1.96-.24-2.66-.73s-1.15-1.19-1.34-2.1l1.27-.3c.16.66.47,1.15.93,1.47s1.06.48,1.78.48c.83,0,1.49-.19,1.99-.56s.75-.83.75-1.39c0-.89-.59-1.47-1.78-1.76l-1.78-.43c-1.87-.45-2.8-1.42-2.8-2.9,0-.61.16-1.15.49-1.61s.78-.82,1.36-1.08,1.23-.39,1.97-.39c1.03,0,1.84.23,2.45.7s1.03,1.09,1.28,1.88l-1.21.31c-.17-.5-.45-.92-.84-1.25s-.95-.49-1.67-.49-1.32.17-1.79.52-.7.79-.7,1.33c0,.9.65,1.5,1.95,1.82l1.67.4c1.84.44,2.76,1.4,2.76,2.87,0,.62-.17,1.18-.52,1.66s-.83.86-1.44,1.13-1.32.41-2.12.41Z"/>
    <path class="cls-4" d="M293.69,85.83v1.15h-2.25v7.19c0,1.09.49,1.59,1.46,1.49.09,0,.2-.01.34-.03s.26-.05.38-.07l.27,1.14c-.28.09-.61.14-1,.16-.87.06-1.55-.15-2.04-.62s-.74-1.13-.74-1.98v-7.28h-1.62v-1.15h1.62v-2.6h1.33v2.6h2.25Z"/>
    <path class="cls-4" d="M300.49,96.98c-1.02,0-1.91-.24-2.65-.72s-1.32-1.14-1.73-1.99-.61-1.82-.61-2.92.2-2.08.6-2.93.96-1.52,1.68-2.01,1.55-.73,2.5-.73c.79,0,1.55.2,2.26.59s1.29.99,1.73,1.79.66,1.82.66,3.06v.58h-8.1c.03,1.24.37,2.24,1.03,2.98s1.54,1.12,2.64,1.12c.76,0,1.39-.18,1.88-.53s.83-.77,1.04-1.25l1.26.4c-.25.68-.73,1.28-1.45,1.8s-1.63.77-2.73.77ZM296.83,90.55h6.76c-.07-1.06-.4-1.94-.98-2.63s-1.36-1.04-2.33-1.04c-.66,0-1.24.17-1.74.5s-.9.78-1.2,1.33-.47,1.17-.51,1.84Z"/>
    <path class="cls-4" d="M309.08,89.94v6.81h-1.33v-10.92h1.28v2.01c.34-.76.81-1.3,1.41-1.65s1.27-.51,2.01-.51c1.11,0,2,.34,2.7,1.03s1.04,1.68,1.04,2.97v7.06h-1.32v-6.96c0-.89-.25-1.6-.75-2.11s-1.17-.78-2.01-.78-1.58.27-2.15.82-.86,1.29-.86,2.23Z"/>
    <path class="cls-4" d="M320.29,83.81c-.27,0-.5-.09-.68-.27s-.28-.4-.28-.65.09-.47.28-.65.42-.27.68-.27.5.09.68.27.28.4.28.65-.09.47-.28.65-.42.27-.68.27ZM319.62,96.75v-10.92h1.33v10.92h-1.33Z"/>
    <path class="cls-4" d="M325.72,89.94v6.81h-1.33v-10.92h1.28v2.01c.34-.76.81-1.3,1.41-1.65s1.27-.51,2.01-.51c1.11,0,2,.34,2.7,1.03s1.04,1.68,1.04,2.97v7.06h-1.32v-6.96c0-.89-.25-1.6-.75-2.11s-1.17-.78-2.01-.78-1.58.27-2.15.82-.86,1.29-.86,2.23Z"/>
    <path class="cls-4" d="M340.44,101.06c-1.11,0-2.03-.21-2.74-.62s-1.23-.95-1.54-1.59l1.09-.66c.23.42.6.81,1.08,1.17s1.19.54,2.1.54c.96,0,1.74-.24,2.32-.72s.88-1.22.88-2.22v-2.45h-.13c-.14.34-.35.67-.63,1s-.64.6-1.08.81-.99.32-1.64.32c-.87,0-1.64-.21-2.31-.64s-1.2-1.04-1.59-1.84-.58-1.76-.58-2.88.19-2.09.57-2.92.91-1.49,1.58-1.96,1.46-.7,2.35-.7c.66,0,1.22.12,1.66.36s.8.53,1.07.87.48.68.62,1.02h.14v-2.1h1.29v11.18c0,.92-.2,1.69-.59,2.29s-.93,1.04-1.61,1.33-1.46.43-2.33.43ZM340.36,95.44c1.04,0,1.85-.37,2.43-1.12s.87-1.77.87-3.08c0-.84-.13-1.59-.39-2.25s-.63-1.17-1.12-1.55-1.09-.56-1.8-.56-1.32.19-1.82.58-.87.91-1.13,1.57-.38,1.39-.38,2.21c0,1.24.29,2.25.86,3.03s1.4,1.17,2.47,1.17Z"/>
    <path class="cls-4" d="M357.82,85.83v1.15h-2.25v7.19c0,1.09.49,1.59,1.46,1.49.09,0,.2-.01.34-.03s.26-.05.38-.07l.27,1.14c-.28.09-.61.14-1,.16-.87.06-1.55-.15-2.04-.62s-.74-1.13-.74-1.98v-7.28h-1.62v-1.15h1.62v-2.6h1.33v2.6h2.25Z"/>
    <path class="cls-4" d="M364.62,96.98c-1.02,0-1.91-.24-2.65-.72s-1.32-1.14-1.73-1.99-.61-1.82-.61-2.92.2-2.08.6-2.93.96-1.52,1.68-2.01,1.55-.73,2.5-.73c.79,0,1.55.2,2.26.59s1.29.99,1.73,1.79.66,1.82.66,3.06v.58h-8.1c.03,1.24.37,2.24,1.03,2.98s1.54,1.12,2.64,1.12c.76,0,1.39-.18,1.88-.53s.83-.77,1.04-1.25l1.26.4c-.25.68-.73,1.28-1.45,1.8s-1.63.77-2.73.77ZM360.97,90.55h6.76c-.07-1.06-.4-1.94-.98-2.63s-1.36-1.04-2.33-1.04c-.66,0-1.24.17-1.74.5s-.9.78-1.2,1.33-.47,1.17-.51,1.84Z"/>
    <path class="cls-4" d="M375.37,96.98c-1.07,0-1.96-.24-2.66-.73s-1.15-1.19-1.34-2.1l1.27-.3c.16.66.47,1.15.93,1.47s1.06.48,1.78.48c.83,0,1.49-.19,1.99-.56s.75-.83.75-1.39c0-.89-.59-1.47-1.78-1.76l-1.78-.43c-1.87-.45-2.8-1.42-2.8-2.9,0-.61.16-1.15.49-1.61s.78-.82,1.36-1.08,1.23-.39,1.97-.39c1.03,0,1.84.23,2.45.7s1.03,1.09,1.28,1.88l-1.21.31c-.17-.5-.45-.92-.84-1.25s-.95-.49-1.67-.49-1.32.17-1.79.52-.7.79-.7,1.33c0,.9.65,1.5,1.95,1.82l1.67.4c1.84.44,2.76,1.4,2.76,2.87,0,.62-.17,1.18-.52,1.66s-.83.86-1.44,1.13-1.32.41-2.12.41Z"/>
    <path class="cls-4" d="M386,85.83v1.15h-2.25v7.19c0,1.09.49,1.59,1.46,1.49.09,0,.2-.01.34-.03s.26-.05.38-.07l.27,1.14c-.28.09-.61.14-1,.16-.87.06-1.55-.15-2.04-.62s-.74-1.13-.74-1.98v-7.28h-1.62v-1.15h1.62v-2.6h1.33v2.6h2.25Z"/>
  </g>
  <g>
    <rect class="cls-6" x="155.25" y="439.87" width="10" height="10"/>
    <g>
      <path class="cls-4" d="M171.3,448.61v-8.73h1.11v7.75h4.04v.98h-5.16Z"/>
      <path class="cls-4" d="M181.62,448.72c-.75,0-1.41-.18-2-.54s-1.04-.88-1.38-1.55-.5-1.47-.5-2.39.17-1.72.5-2.39.79-1.19,1.38-1.55,1.25-.54,2-.54c.59,0,1.13.11,1.63.34s.91.56,1.24.98.55.94.65,1.54h-1.11c-.08-.4-.24-.73-.48-1.01s-.52-.48-.86-.62-.69-.21-1.07-.21c-.52,0-1,.13-1.42.4s-.76.66-1,1.17-.37,1.14-.37,1.89.12,1.37.37,1.88.58.9,1,1.17.89.4,1.41.4c.38,0,.74-.07,1.08-.21s.62-.35.86-.62.4-.61.48-1h1.11c-.1.59-.32,1.1-.65,1.53s-.74.76-1.24.99-1.04.35-1.64.35Z"/>
      <path class="cls-4" d="M189.52,448.72c-.57,0-1.08-.1-1.52-.29s-.79-.47-1.05-.81-.4-.75-.42-1.21h1.12c.03.41.22.74.57.98s.78.36,1.27.36c.55,0,1-.14,1.36-.42s.54-.65.54-1.1-.18-.86-.53-1.16-.85-.45-1.5-.45h-.71v-.97h.71c.51,0,.93-.14,1.25-.41s.48-.63.48-1.08-.14-.78-.42-1.04-.66-.39-1.14-.39c-.3,0-.58.05-.83.16s-.47.26-.64.46-.25.44-.27.73h-1.07c.02-.46.15-.86.41-1.21s.6-.62,1.02-.81.89-.29,1.4-.29c.54,0,1.01.11,1.4.33s.69.51.91.86.32.74.32,1.15c0,.49-.13.91-.39,1.25s-.61.58-1.06.71v.07c.56.09.99.32,1.3.7s.46.84.46,1.39c0,.48-.13.9-.39,1.28s-.61.67-1.06.89-.96.33-1.53.33Z"/>
    </g>
  </g>
  <g>
    <rect class="cls-5" x="105" y="439.82" width="10" height="10"/>
    <g>
      <path class="cls-4" d="M122.9,448.71c-.95,0-1.7-.22-2.26-.67s-.86-1.04-.91-1.77h1.14c.03.33.14.6.33.81s.44.37.74.47.62.16.96.16c.39,0,.75-.06,1.06-.19s.56-.31.75-.54.28-.51.28-.81c0-.28-.08-.51-.24-.69s-.37-.32-.63-.43-.55-.21-.86-.3l-1.05-.3c-.7-.2-1.25-.48-1.64-.86s-.59-.85-.59-1.42c0-.49.13-.92.4-1.29s.62-.66,1.08-.86.96-.3,1.52-.3,1.08.1,1.52.3.79.48,1.05.83.39.75.41,1.19h-1.09c-.05-.43-.25-.75-.61-.99s-.79-.35-1.31-.35c-.57,0-1.02.13-1.37.4s-.52.61-.52,1.02c0,.3.09.55.28.74s.41.33.67.43.5.18.71.24l.87.24c.23.06.49.15.78.26s.55.25.81.44.47.41.64.69.25.62.25,1.03c0,.48-.12.91-.37,1.29s-.61.69-1.08.91-1.04.33-1.72.33Z"/>
      <path class="cls-4" d="M127.87,448.55v-8.73h3.09c.61,0,1.11.1,1.51.31s.69.49.88.84.29.74.29,1.16c0,.38-.07.68-.2.93s-.31.44-.52.58-.45.25-.71.32v.08c.27.02.55.11.82.28s.5.42.68.73.27.7.27,1.16-.1.83-.3,1.18-.52.63-.95.83-.99.31-1.68.31h-3.19ZM128.98,443.65h1.92c.47,0,.87-.14,1.19-.41s.49-.63.49-1.08c0-.38-.13-.7-.4-.96s-.68-.39-1.25-.39h-1.96v2.85ZM128.98,447.57h2.05c.68,0,1.16-.13,1.45-.39s.43-.58.43-.96c0-.29-.07-.56-.22-.81s-.36-.44-.63-.59-.59-.22-.97-.22h-2.11v2.98Z"/>
      <path class="cls-4" d="M139.33,448.67c-.75,0-1.41-.18-2-.54s-1.04-.88-1.38-1.55-.5-1.47-.5-2.39.17-1.72.5-2.39.79-1.19,1.38-1.55,1.25-.54,2-.54c.59,0,1.13.11,1.63.34s.91.56,1.24.98.55.94.65,1.54h-1.11c-.08-.4-.24-.73-.48-1.01s-.52-.48-.86-.62-.69-.21-1.07-.21c-.52,0-1,.13-1.42.4s-.76.66-1,1.17-.37,1.14-.37,1.89.12,1.37.37,1.88.58.9,1,1.17.89.4,1.41.4c.38,0,.74-.07,1.08-.21s.62-.35.86-.62.4-.61.48-1h1.11c-.1.59-.32,1.1-.65,1.53s-.74.76-1.24.99-1.04.35-1.64.35Z"/>
    </g>
  </g>
  <g>
    <rect class="cls-3" x="139.99" y="368.99" width="17.11" height="258.91" transform="translate(-350.06 646.46) rotate(-89.94)"/>
    <path class="cls-2" d="M22.3,501.52c-.79,0-1.41-.19-1.88-.56-.47-.37-.72-.86-.76-1.47h.95c.03.27.12.5.28.68.16.18.36.31.61.4.25.09.52.13.8.13.33,0,.62-.05.89-.16s.47-.26.62-.45.23-.42.23-.68c0-.23-.07-.42-.2-.57s-.31-.27-.52-.36-.46-.18-.72-.25l-.88-.25c-.59-.17-1.04-.4-1.37-.71s-.49-.71-.49-1.19c0-.41.11-.77.33-1.08.22-.31.52-.55.9-.71s.8-.25,1.27-.25.9.08,1.27.25.66.4.87.69c.21.29.33.62.34.99h-.91c-.04-.35-.21-.63-.51-.82-.3-.19-.66-.29-1.09-.29-.47,0-.85.11-1.14.33-.29.22-.43.51-.43.85,0,.25.08.46.24.61.16.15.35.27.56.36.22.09.41.15.59.2l.73.2c.2.05.41.12.65.21s.46.21.68.36c.21.15.39.34.53.58.14.23.21.52.21.86,0,.4-.1.75-.31,1.07s-.51.57-.9.76-.87.28-1.43.28Z"/>
    <path class="cls-2" d="M28.5,501.51c-.49,0-.93-.12-1.3-.35s-.66-.56-.87-.99-.31-.92-.31-1.47.1-1.07.31-1.49c.21-.42.5-.75.87-.99s.81-.35,1.3-.35.93.12,1.31.35.67.56.87.99c.21.43.31.92.31,1.49s-.1,1.05-.31,1.47-.5.75-.87.99-.81.35-1.31.35ZM28.5,500.72c.37,0,.67-.09.91-.28s.41-.44.53-.75c.11-.31.17-.64.17-1s-.06-.7-.17-1.01c-.11-.31-.29-.56-.53-.75-.24-.19-.54-.29-.91-.29s-.66.09-.9.29c-.23.19-.41.44-.52.75s-.17.65-.17,1.01.06.69.17,1c.11.31.29.56.52.75s.53.28.9.28Z"/>
    <path class="cls-2" d="M34.13,501.46c-.55,0-1-.17-1.34-.51s-.51-.86-.51-1.55v-3.47h.88v3.39c0,.42.11.75.33.99s.52.36.9.36.72-.13.98-.38c.26-.26.39-.62.39-1.08v-3.27h.88v5.46h-.85v-1.02c-.18.4-.41.68-.7.84-.29.16-.61.25-.97.25Z"/>
    <path class="cls-2" d="M38.19,501.39v-5.46h.85v.84h.06c.1-.28.28-.5.54-.67.26-.17.55-.25.88-.25.06,0,.14,0,.23,0s.16,0,.21,0v.88s-.09-.02-.2-.03-.21-.02-.33-.02c-.39,0-.72.12-.98.36-.26.24-.39.54-.39.91v3.42h-.88Z"/>
    <path class="cls-2" d="M44.01,501.51c-.49,0-.93-.12-1.3-.35s-.66-.56-.87-.99-.31-.92-.31-1.47.1-1.07.31-1.49c.21-.42.5-.75.87-.99s.81-.35,1.3-.35c.53,0,.99.13,1.39.4.4.26.67.63.82,1.11l-.84.24c-.08-.28-.24-.51-.48-.69-.24-.18-.53-.27-.89-.27s-.66.09-.9.29c-.23.19-.41.44-.52.75s-.17.65-.17,1.01.06.69.17,1c.11.31.29.56.52.75s.53.28.9.28.67-.09.91-.28c.24-.19.4-.43.48-.73l.84.24c-.15.49-.42.87-.83,1.14-.4.27-.87.41-1.41.41Z"/>
    <path class="cls-2" d="M49.8,501.51c-.53,0-.98-.12-1.36-.35s-.68-.56-.88-.98-.31-.91-.31-1.47.1-1.05.3-1.48.49-.76.86-1,.8-.36,1.3-.36c.29,0,.58.05.86.14.28.1.54.25.77.46.23.21.41.49.55.84s.21.77.21,1.28v.37h-3.95c.02.57.19,1.01.49,1.31.3.3.7.46,1.18.46.32,0,.6-.07.83-.21.23-.14.4-.35.5-.63l.85.23c-.13.41-.38.75-.77,1-.39.25-.86.38-1.42.38ZM48.13,498.21h3.05c-.04-.47-.19-.84-.44-1.13-.25-.29-.6-.44-1.05-.44-.31,0-.58.07-.81.22s-.4.34-.53.58-.2.5-.22.78Z"/>
    <path class="cls-2" d="M54,497.5c-.18,0-.34-.06-.47-.19-.13-.13-.19-.28-.19-.47s.06-.34.19-.47c.13-.13.28-.19.47-.19s.34.06.47.19c.13.13.19.28.19.47s-.06.34-.19.47c-.13.13-.28.19-.47.19ZM54,501.45c-.18,0-.34-.06-.47-.19-.13-.13-.19-.28-.19-.47s.06-.34.19-.47c.13-.13.28-.19.47-.19s.34.06.47.19c.13.13.19.28.19.47s-.06.34-.19.47c-.13.13-.28.19-.47.19Z"/>
    <path class="cls-2" d="M59.13,501.39v-7.28h2.58c.51,0,.93.09,1.26.26.33.17.58.41.74.7.16.29.24.62.24.97,0,.31-.06.57-.17.77-.11.2-.26.37-.44.49s-.38.21-.59.27v.07c.23.01.46.09.68.23s.42.35.57.61.23.59.23.97-.08.69-.25.99-.43.52-.79.7c-.36.17-.82.26-1.4.26h-2.66ZM60.06,497.31h1.6c.39,0,.72-.11.99-.34s.41-.53.41-.9c0-.32-.11-.58-.33-.8s-.57-.33-1.04-.33h-1.63v2.37ZM60.06,500.57h1.71c.57,0,.97-.11,1.21-.33s.36-.49.36-.8c0-.24-.06-.47-.19-.67s-.3-.37-.52-.49-.5-.19-.81-.19h-1.76v2.48Z"/>
    <path class="cls-2" d="M66.45,494.11v7.28h-.88v-7.28h.88Z"/>
    <path class="cls-2" d="M69.84,501.46c-.55,0-1-.17-1.34-.51s-.51-.86-.51-1.55v-3.47h.88v3.39c0,.42.11.75.33.99s.52.36.9.36.72-.13.98-.38c.26-.26.39-.62.39-1.08v-3.27h.88v5.46h-.85v-1.02c-.18.4-.41.68-.7.84-.29.16-.61.25-.97.25Z"/>
    <path class="cls-2" d="M76.2,501.51c-.53,0-.98-.12-1.36-.35s-.68-.56-.88-.98-.31-.91-.31-1.47.1-1.05.3-1.48.49-.76.86-1,.8-.36,1.3-.36c.29,0,.58.05.86.14.28.1.54.25.77.46.23.21.41.49.55.84s.21.77.21,1.28v.37h-3.95c.02.57.19,1.01.49,1.31.3.3.7.46,1.18.46.32,0,.6-.07.83-.21.23-.14.4-.35.5-.63l.85.23c-.13.41-.38.75-.77,1-.39.25-.86.38-1.42.38ZM74.53,498.21h3.05c-.04-.47-.19-.84-.44-1.13-.25-.29-.6-.44-1.05-.44-.31,0-.58.07-.81.22s-.4.34-.53.58-.2.5-.22.78Z"/>
    <path class="cls-2" d="M81.88,495.93v.75h-1.12v3.29c0,.24.05.42.15.54.1.11.26.17.5.17.06,0,.13,0,.21-.02s.17-.03.24-.04l.18.74c-.09.03-.19.06-.31.07s-.23.02-.34.02c-.47,0-.84-.12-1.1-.37-.26-.25-.4-.6-.4-1.04v-3.36h-.82v-.75h.82v-1.3h.88v1.3h1.12Z"/>
    <path class="cls-2" d="M85.13,501.51c-.49,0-.93-.12-1.3-.35s-.66-.56-.87-.99-.31-.92-.31-1.47.1-1.07.31-1.49c.21-.42.5-.75.87-.99s.81-.35,1.3-.35.93.12,1.31.35.67.56.87.99c.21.43.31.92.31,1.49s-.1,1.05-.31,1.47-.5.75-.87.99-.81.35-1.31.35ZM85.13,500.72c.37,0,.67-.09.91-.28s.41-.44.53-.75c.11-.31.17-.64.17-1s-.06-.7-.17-1.01c-.11-.31-.29-.56-.53-.75-.24-.19-.54-.29-.91-.29s-.66.09-.9.29c-.23.19-.41.44-.52.75s-.17.65-.17,1.01.06.69.17,1c.11.31.29.56.52.75s.53.28.9.28Z"/>
    <path class="cls-2" d="M91.12,501.51c-.49,0-.93-.12-1.3-.35s-.66-.56-.87-.99-.31-.92-.31-1.47.1-1.07.31-1.49c.21-.42.5-.75.87-.99s.81-.35,1.3-.35.93.12,1.31.35.67.56.87.99c.21.43.31.92.31,1.49s-.1,1.05-.31,1.47-.5.75-.87.99-.81.35-1.31.35ZM91.12,500.72c.37,0,.67-.09.91-.28s.41-.44.53-.75c.11-.31.17-.64.17-1s-.06-.7-.17-1.01c-.11-.31-.29-.56-.53-.75-.24-.19-.54-.29-.91-.29s-.66.09-.9.29c-.23.19-.41.44-.52.75s-.17.65-.17,1.01.06.69.17,1c.11.31.29.56.52.75s.53.28.9.28Z"/>
    <path class="cls-2" d="M97.05,495.93v.75h-1.12v3.29c0,.24.05.42.15.54.1.11.26.17.5.17.06,0,.13,0,.21-.02s.17-.03.24-.04l.18.74c-.09.03-.19.06-.31.07s-.23.02-.34.02c-.47,0-.84-.12-1.1-.37-.26-.25-.4-.6-.4-1.04v-3.36h-.82v-.75h.82v-1.3h.88v1.3h1.12Z"/>
    <path class="cls-2" d="M99.05,498.12v3.27h-.88v-7.28h.88v2.76c.18-.36.41-.62.69-.78s.6-.23.95-.23c.55,0,1,.17,1.34.51s.51.86.51,1.55v3.47h-.88v-3.39c0-.42-.11-.75-.33-.99s-.52-.36-.9-.36-.72.13-.98.38c-.26.26-.39.62-.39,1.08Z"/>
    <path class="cls-2" d="M109.33,501.52c-.79,0-1.41-.19-1.88-.56-.47-.37-.72-.86-.76-1.47h.95c.03.27.12.5.28.68.16.18.36.31.61.4.25.09.52.13.8.13.33,0,.62-.05.89-.16s.47-.26.62-.45.23-.42.23-.68c0-.23-.07-.42-.2-.57s-.31-.27-.52-.36-.46-.18-.72-.25l-.88-.25c-.59-.17-1.04-.4-1.37-.71s-.49-.71-.49-1.19c0-.41.11-.77.33-1.08.22-.31.52-.55.9-.71s.8-.25,1.27-.25.9.08,1.27.25.66.4.87.69c.21.29.33.62.34.99h-.91c-.04-.35-.21-.63-.51-.82-.3-.19-.66-.29-1.09-.29-.47,0-.85.11-1.14.33-.29.22-.43.51-.43.85,0,.25.08.46.24.61.16.15.35.27.56.36.22.09.41.15.59.2l.73.2c.2.05.41.12.65.21s.46.21.68.36c.21.15.39.34.53.58.14.23.21.52.21.86,0,.4-.1.75-.31,1.07s-.51.57-.9.76-.87.28-1.43.28Z"/>
    <path class="cls-2" d="M114.35,494.11v7.28h-.93v-7.28h.93Z"/>
    <path class="cls-2" d="M119.08,501.49c-.65,0-1.22-.15-1.7-.45s-.87-.73-1.14-1.29c-.27-.56-.41-1.22-.41-1.98s.14-1.44.41-1.99c.27-.56.65-.99,1.13-1.29s1.03-.45,1.66-.45c.51,0,.98.1,1.4.3.42.2.77.48,1.04.83.28.36.46.77.55,1.24h-.96c-.15-.47-.4-.83-.74-1.11s-.77-.41-1.29-.41c-.43,0-.81.11-1.16.33-.35.22-.62.54-.83.97-.21.43-.31.96-.31,1.58s.1,1.14.31,1.57.49.75.84.97.76.33,1.2.33c.4,0,.76-.08,1.07-.25s.55-.41.73-.72.27-.68.28-1.11h-1.88v-.81h2.79v.8c0,.6-.13,1.12-.39,1.57s-.61.79-1.06,1.03c-.45.24-.96.36-1.54.36Z"/>
    <path class="cls-2" d="M128.13,501.51c-.56,0-1.03-.12-1.4-.37s-.61-.6-.7-1.07l.83-.2c.08.3.23.52.44.66s.49.21.81.21c.38,0,.68-.08.91-.24s.34-.36.34-.58c0-.37-.27-.62-.8-.75l-.91-.21c-.98-.23-1.46-.73-1.46-1.49,0-.31.09-.59.26-.83.18-.24.42-.43.72-.56.3-.14.65-.2,1.04-.2.56,0,1,.12,1.31.37.31.25.53.56.65.94l-.8.21c-.07-.2-.2-.37-.37-.53s-.44-.24-.79-.24c-.33,0-.6.08-.81.22s-.32.34-.32.57c0,.2.07.36.22.49.15.12.38.22.7.3l.83.2c.49.12.86.3,1.1.54.24.25.36.56.36.93,0,.32-.09.6-.27.85-.18.25-.43.44-.76.59s-.7.21-1.13.21Z"/>
    <path class="cls-2" d="M133.7,495.93v.75h-1.12v3.29c0,.24.05.42.15.54.1.11.26.17.5.17.06,0,.13,0,.21-.02s.17-.03.24-.04l.18.74c-.09.03-.19.06-.31.07s-.23.02-.34.02c-.47,0-.84-.12-1.1-.37-.26-.25-.4-.6-.4-1.04v-3.36h-.82v-.75h.82v-1.3h.88v1.3h1.12Z"/>
    <path class="cls-2" d="M136.67,501.46c-.55,0-1-.17-1.34-.51s-.51-.86-.51-1.55v-3.47h.88v3.39c0,.42.11.75.33.99s.52.36.9.36.72-.13.98-.38c.26-.26.39-.62.39-1.08v-3.27h.88v5.46h-.85v-1.02c-.18.4-.41.68-.7.84-.29.16-.61.25-.97.25Z"/>
    <path class="cls-2" d="M142.78,501.51c-.45,0-.85-.12-1.2-.35s-.62-.56-.82-.98-.29-.92-.29-1.5.1-1.08.3-1.5c.2-.42.47-.75.82-.97s.75-.34,1.2-.34c.35,0,.64.06.84.18s.37.25.48.4c.11.15.2.27.26.37h.07v-2.69h.88v7.28h-.85v-.84h-.1c-.06.1-.15.23-.26.38-.12.15-.28.29-.49.41-.21.12-.49.18-.84.18ZM142.91,500.72c.49,0,.87-.19,1.14-.57s.4-.88.4-1.48-.13-1.09-.39-1.46-.64-.56-1.15-.56c-.35,0-.63.09-.86.27s-.4.42-.52.72c-.11.3-.17.65-.17,1.02s.06.73.17,1.04c.12.31.29.56.52.74.23.18.52.28.85.28Z"/>
    <path class="cls-2" d="M146.82,503.37l.22-.76.09.02c.27.07.5.06.7-.03.2-.09.36-.33.49-.73l.16-.45-2.08-5.49h.96l1.16,3.24c.08.24.16.47.23.71s.13.47.19.69c.06-.23.13-.46.19-.69s.14-.47.23-.71l1.17-3.24h.96l-2.4,6.27c-.17.43-.38.75-.65.96s-.59.31-.98.31c-.16,0-.29-.01-.41-.03s-.19-.05-.24-.07Z"/>
    <path class="cls-2" d="M157.87,501.51c-.35,0-.62-.06-.83-.18-.21-.12-.37-.25-.49-.41-.11-.15-.2-.28-.26-.38h-.1v.84h-.85v-7.28h.88v2.69h.07c.06-.1.15-.22.26-.37.11-.15.27-.28.48-.4s.49-.18.84-.18c.46,0,.86.11,1.2.34s.62.55.82.97c.2.42.3.92.3,1.5s-.1,1.08-.29,1.5-.47.75-.81.98-.75.35-1.2.35ZM157.74,500.72c.34,0,.63-.09.86-.28.23-.18.4-.43.52-.74.12-.31.17-.66.17-1.04s-.06-.72-.17-1.02c-.11-.3-.29-.55-.52-.72s-.52-.27-.86-.27c-.5,0-.88.19-1.14.56s-.39.86-.39,1.46.13,1.1.4,1.48.64.57,1.14.57Z"/>
    <path class="cls-2" d="M163.09,501.52c-.35,0-.66-.07-.94-.2s-.51-.32-.67-.57-.25-.55-.25-.91c0-.31.06-.57.19-.76s.29-.35.5-.46c.21-.11.44-.2.69-.25s.5-.1.76-.13c.33-.04.59-.08.8-.1s.36-.06.46-.12.15-.15.15-.28v-.03c0-.34-.1-.6-.29-.79-.19-.19-.48-.28-.85-.28s-.7.09-.92.26c-.22.17-.37.35-.46.54l-.84-.28c.14-.33.33-.59.57-.78.24-.19.5-.32.79-.4s.57-.12.85-.12c.18,0,.39.02.62.07.23.04.46.13.67.26s.4.32.54.58c.14.25.21.6.21,1.02v3.6h-.86v-.74h-.06c-.06.13-.16.26-.3.39-.14.14-.31.25-.53.34s-.48.14-.79.14ZM163.24,500.74c.33,0,.6-.06.83-.19s.4-.29.51-.5c.12-.2.18-.42.18-.64v-.76s-.11.08-.23.11c-.12.04-.26.06-.41.09s-.3.05-.45.07c-.15.02-.26.03-.34.04-.21.03-.41.07-.59.13-.18.06-.33.16-.44.28-.11.12-.17.29-.17.5,0,.28.11.5.32.64.21.15.48.22.81.22Z"/>
    <path class="cls-2" d="M169.03,501.51c-.56,0-1.03-.12-1.4-.37s-.61-.6-.7-1.07l.83-.2c.08.3.23.52.44.66s.49.21.81.21c.38,0,.68-.08.91-.24s.34-.36.34-.58c0-.37-.27-.62-.8-.75l-.91-.21c-.98-.23-1.46-.73-1.46-1.49,0-.31.09-.59.26-.83.18-.24.42-.43.72-.56.3-.14.65-.2,1.04-.2.56,0,1,.12,1.31.37.31.25.53.56.65.94l-.8.21c-.07-.2-.2-.37-.37-.53s-.44-.24-.79-.24c-.33,0-.6.08-.81.22s-.32.34-.32.57c0,.2.07.36.22.49.15.12.38.22.7.3l.83.2c.49.12.86.3,1.1.54.24.25.36.56.36.93,0,.32-.09.6-.27.85-.18.25-.43.44-.76.59s-.7.21-1.13.21Z"/>
    <path class="cls-2" d="M174.75,501.51c-.53,0-.98-.12-1.36-.35s-.68-.56-.88-.98-.31-.91-.31-1.47.1-1.05.3-1.48.49-.76.86-1,.8-.36,1.3-.36c.29,0,.58.05.86.14.28.1.54.25.77.46.23.21.41.49.55.84s.21.77.21,1.28v.37h-3.95c.02.57.19,1.01.49,1.31.3.3.7.46,1.18.46.32,0,.6-.07.83-.21.23-.14.4-.35.5-.63l.85.23c-.13.41-.38.75-.77,1-.39.25-.86.38-1.42.38ZM173.08,498.21h3.05c-.04-.47-.19-.84-.44-1.13-.25-.29-.6-.44-1.05-.44-.31,0-.58.07-.81.22s-.4.34-.53.58-.2.5-.22.78Z"/>
    <path class="cls-2" d="M180.33,501.51c-.45,0-.85-.12-1.2-.35s-.62-.56-.82-.98-.29-.92-.29-1.5.1-1.08.3-1.5c.2-.42.47-.75.82-.97s.75-.34,1.2-.34c.35,0,.64.06.84.18s.37.25.48.4c.11.15.2.27.26.37h.07v-2.69h.88v7.28h-.85v-.84h-.1c-.06.1-.15.23-.26.38-.12.15-.28.29-.49.41-.21.12-.49.18-.84.18ZM180.46,500.72c.49,0,.87-.19,1.14-.57s.4-.88.4-1.48-.13-1.09-.39-1.46-.64-.56-1.15-.56c-.35,0-.63.09-.86.27s-.4.42-.52.72c-.11.3-.17.65-.17,1.02s.06.73.17,1.04c.12.31.29.56.52.74.23.18.52.28.85.28Z"/>
    <path class="cls-2" d="M189.44,501.51c-.49,0-.93-.12-1.3-.35s-.66-.56-.87-.99-.31-.92-.31-1.47.1-1.07.31-1.49c.21-.42.5-.75.87-.99s.81-.35,1.3-.35.93.12,1.31.35.67.56.87.99c.21.43.31.92.31,1.49s-.1,1.05-.31,1.47-.5.75-.87.99-.81.35-1.31.35ZM189.44,500.72c.37,0,.67-.09.91-.28s.41-.44.53-.75c.11-.31.17-.64.17-1s-.06-.7-.17-1.01c-.11-.31-.29-.56-.53-.75-.24-.19-.54-.29-.91-.29s-.66.09-.9.29c-.23.19-.41.44-.52.75s-.17.65-.17,1.01.06.69.17,1c.11.31.29.56.52.75s.53.28.9.28Z"/>
    <path class="cls-2" d="M194.09,498.12v3.27h-.88v-5.46h.84v1.01c.18-.39.41-.66.7-.83s.61-.25.98-.25c.55,0,1,.17,1.34.51s.51.86.51,1.55v3.47h-.88v-3.39c0-.42-.11-.75-.33-.99s-.52-.36-.9-.36-.72.13-.98.38c-.26.26-.39.62-.39,1.08Z"/>
    <path class="cls-2" d="M202.97,494.11v7.28h-.93v-7.28h.93Z"/>
    <path class="cls-2" d="M204.33,494.93v-.82h5.5v.82h-2.28v6.46h-.93v-6.46h-2.29Z"/>
    <path class="cls-2" d="M214.03,501.51c-.57,0-1.07-.11-1.5-.34s-.76-.53-.99-.92-.35-.83-.35-1.33v-4.8h.93v4.73c0,.35.08.66.23.93.15.27.38.49.66.64s.63.23,1.03.23.74-.08,1.02-.23.5-.37.66-.64c.15-.27.23-.58.23-.93v-4.73h.93v4.8c0,.5-.12.94-.35,1.33s-.56.7-.99.92-.92.34-1.5.34Z"/>
    <path class="cls-2" d="M221.64,497.36v.81h-3.19v-.81h3.19Z"/>
    <path class="cls-2" d="M223.22,501.39v-7.28h2.49c.57,0,1.03.1,1.4.29.37.19.64.46.82.8s.27.72.27,1.16c0,.48-.11.9-.33,1.26s-.56.62-1.02.78l1.63,2.99h-1.07l-1.51-2.83c-.06,0-.11,0-.17,0h-1.57v2.82h-.93ZM224.15,497.74h1.52c.57,0,.98-.12,1.23-.37s.37-.58.37-1.01-.12-.78-.37-1.04-.66-.39-1.24-.39h-1.51v2.81Z"/>
    <path class="cls-2" d="M232.47,501.39v-7.28h2.58c.51,0,.93.09,1.26.26.33.17.58.41.74.7.16.29.24.62.24.97,0,.31-.06.57-.17.77-.11.2-.26.37-.44.49s-.38.21-.59.27v.07c.23.01.46.09.68.23s.42.35.57.61.23.59.23.97-.08.69-.25.99-.43.52-.79.7c-.36.17-.82.26-1.4.26h-2.66ZM233.4,497.31h1.6c.39,0,.72-.11.99-.34s.41-.53.41-.9c0-.32-.11-.58-.33-.8s-.57-.33-1.04-.33h-1.63v2.37ZM233.4,500.57h1.71c.57,0,.97-.11,1.21-.33s.36-.49.36-.8c0-.24-.06-.47-.19-.67s-.3-.37-.52-.49-.5-.19-.81-.19h-1.76v2.48Z"/>
    <path class="cls-2" d="M241.34,501.52c-.79,0-1.41-.19-1.88-.56-.47-.37-.72-.86-.76-1.47h.95c.03.27.12.5.28.68.16.18.36.31.61.4.25.09.52.13.8.13.33,0,.62-.05.89-.16s.47-.26.62-.45.23-.42.23-.68c0-.23-.07-.42-.2-.57s-.31-.27-.52-.36-.46-.18-.72-.25l-.88-.25c-.59-.17-1.04-.4-1.37-.71s-.49-.71-.49-1.19c0-.41.11-.77.33-1.08.22-.31.52-.55.9-.71s.8-.25,1.27-.25.9.08,1.27.25.66.4.87.69c.21.29.33.62.34.99h-.91c-.04-.35-.21-.63-.51-.82-.3-.19-.66-.29-1.09-.29-.47,0-.85.11-1.14.33-.29.22-.43.51-.43.85,0,.25.08.46.24.61.16.15.35.27.56.36.22.09.41.15.59.2l.73.2c.2.05.41.12.65.21s.46.21.68.36c.21.15.39.34.53.58.14.23.21.52.21.86,0,.4-.1.75-.31,1.07s-.51.57-.9.76-.87.28-1.43.28Z"/>
    <path class="cls-2" d="M245.99,501.45c-.18,0-.34-.06-.47-.19-.13-.13-.19-.28-.19-.47s.06-.34.19-.47c.13-.13.28-.19.47-.19s.34.06.47.19c.13.13.19.28.19.47s-.06.34-.19.47c-.13.13-.28.19-.47.19Z"/>
    <path class="cls-2" d="M249.76,494.11v7.28h-.91v-6.42h-.05l-1.76,1.3v-1l1.58-1.17h1.14Z"/>
    <path class="cls-2" d="M253.82,494.11v7.28h-.91v-6.42h-.05l-1.76,1.3v-1l1.58-1.17h1.14Z"/>
    <path class="cls-2" d="M257.89,494.11v7.28h-.91v-6.42h-.05l-1.76,1.3v-1l1.58-1.17h1.14Z"/>
    <path class="cls-2" d="M261.93,501.49c-.3,0-.61-.06-.91-.17s-.58-.3-.83-.56c-.25-.26-.45-.61-.6-1.06s-.22-1-.22-1.67c0-1.28.24-2.27.72-2.97.48-.7,1.13-1.05,1.95-1.05.41,0,.77.08,1.09.24s.59.39.79.68.34.62.4,1.01h-.91c-.08-.32-.24-.58-.46-.79s-.53-.32-.91-.32c-.56,0-1,.24-1.32.72-.32.48-.48,1.16-.48,2.04h.06c.2-.3.45-.54.76-.71.31-.17.65-.26,1.03-.26.42,0,.8.1,1.14.31s.62.49.83.85c.21.36.31.78.31,1.25s-.1.86-.3,1.23c-.2.37-.49.66-.85.88-.37.22-.8.33-1.29.33ZM261.93,500.67c.29,0,.56-.07.79-.22s.42-.34.56-.59c.14-.25.21-.52.21-.82s-.07-.57-.2-.81c-.13-.24-.31-.44-.54-.58s-.49-.21-.79-.21-.56.08-.8.22-.43.35-.57.59c-.14.25-.21.51-.21.79s.07.55.2.8c.13.25.32.45.55.6.23.15.5.23.8.23Z"/>
    <path class="cls-2" d="M268.87,497.36v.81h-3.19v-.81h3.19Z"/>
    <path class="cls-2" d="M272.56,501.49c-.48,0-.9-.08-1.26-.24s-.66-.39-.88-.68c-.22-.29-.33-.63-.35-1.01h.94c.03.34.19.62.48.82.29.2.65.3,1.06.3.46,0,.83-.12,1.13-.35.3-.23.45-.54.45-.92s-.15-.72-.44-.96c-.29-.25-.71-.37-1.25-.37h-.59v-.81h.59c.43,0,.77-.11,1.04-.34.26-.23.4-.53.4-.9s-.12-.65-.35-.87-.55-.33-.95-.33c-.25,0-.48.04-.7.13-.22.09-.39.22-.53.38-.14.17-.21.37-.22.61h-.89c.01-.38.13-.72.34-1.01s.5-.52.85-.68c.35-.16.74-.24,1.17-.24.45,0,.84.09,1.17.27.33.18.58.42.75.72s.26.62.26.96c0,.41-.11.76-.33,1.04-.22.29-.51.49-.88.6v.06c.47.08.83.27,1.08.58.26.31.39.7.39,1.16,0,.4-.11.75-.32,1.06s-.51.56-.88.74c-.37.18-.8.27-1.27.27Z"/>
  </g>
  <g>
    <g>
      <g>
        <path d="M75.3,403.83c-.93,0-1.65-.37-2.16-1.12-.51-.75-.77-1.8-.77-3.16s.26-2.4.78-3.16,1.24-1.13,2.16-1.13,1.65.38,2.16,1.13.77,1.81.77,3.16-.26,2.41-.77,3.16c-.51.75-1.23,1.12-2.17,1.12ZM75.3,402.9c.61,0,1.08-.29,1.41-.88s.5-1.41.5-2.47-.17-1.89-.5-2.48c-.33-.59-.8-.88-1.41-.88s-1.08.3-1.41.89c-.33.59-.5,1.42-.5,2.48s.17,1.88.5,2.47c.33.59.8.88,1.41.88Z"/>
        <path d="M77.92,342.33v8.34h-1.05v-7.36s-.06,0-.06,0l-2.02,1.5v-1.14l1.81-1.34h1.3Z"/>
        <path d="M72.8,300.63v-.77l2.77-3.01c.31-.34.57-.63.77-.88.21-.25.36-.5.46-.72s.16-.47.16-.73c0-.44-.15-.78-.45-1.04-.3-.25-.67-.38-1.12-.38-.47,0-.85.14-1.13.43-.28.28-.42.66-.42,1.13h-1.02c0-.49.11-.93.34-1.3.23-.37.54-.66.93-.87s.84-.31,1.33-.31.94.1,1.32.31.68.49.9.84c.22.35.33.75.33,1.18,0,.3-.05.6-.16.88-.11.29-.3.61-.57.97s-.66.8-1.15,1.33l-1.83,1.94v.07h3.85v.94h-5.31Z"/>
        <path d="M75.41,249.7c-.54,0-1.03-.09-1.45-.28s-.76-.45-1.01-.78c-.25-.33-.38-.72-.4-1.16h1.08c.03.4.21.71.55.94s.74.34,1.22.34c.52,0,.95-.13,1.3-.4.34-.27.51-.62.51-1.05s-.17-.82-.5-1.11c-.34-.29-.81-.43-1.43-.43h-.68v-.92h.68c.49,0,.89-.13,1.19-.39.3-.26.46-.6.46-1.03s-.13-.75-.4-1c-.27-.25-.63-.38-1.09-.38-.28,0-.55.05-.8.15-.25.1-.45.25-.61.44s-.24.42-.25.69h-1.02c.02-.44.15-.82.39-1.15.25-.33.57-.59.98-.78.41-.19.85-.28,1.34-.28.52,0,.97.11,1.34.31.38.21.66.48.87.82s.3.71.3,1.1c0,.47-.12.87-.37,1.2-.25.33-.59.56-1.01.68v.07c.53.09.95.31,1.24.67.29.36.44.8.44,1.33,0,.46-.12.86-.37,1.22-.25.36-.58.64-1.01.85s-.92.31-1.46.31Z"/>
        <path d="M72.21,196.85v-.87l3.65-5.78h1.29v5.71s1.13,0,1.13,0v.94h-1.13v1.7h-1.02v-1.7h-3.93ZM76.14,195.91v-4.38s-.07,0-.07,0l-2.73,4.31v.07h2.79Z"/>
        <path d="M75.48,146.62c-.49,0-.93-.1-1.32-.29-.39-.19-.7-.46-.93-.79s-.36-.71-.38-1.14h1.03c.03.37.2.68.51.92.3.24.67.36,1.08.36.34,0,.64-.08.9-.23s.47-.37.62-.65c.15-.28.22-.59.22-.94s-.08-.68-.23-.96c-.16-.28-.37-.51-.64-.67-.27-.16-.58-.24-.93-.24-.26,0-.52.04-.78.12-.27.08-.48.19-.64.31l-1-.12.49-4.13h4.39v.94h-3.49s-.29,2.44-.29,2.44h.04c.17-.14.39-.26.65-.35s.54-.14.82-.14c.51,0,.97.12,1.37.36.4.24.71.57.94.99s.34.9.34,1.44-.12,1.01-.36,1.43c-.24.42-.57.75-.99.99-.42.24-.9.36-1.43.36Z"/>
      </g>
      <line class="cls-1" x1="84.26" y1="399.61" x2="428.38" y2="399.64"/>
      <line class="cls-1" x1="83.27" y1="348.35" x2="427.39" y2="348.37"/>
      <line class="cls-1" x1="84.27" y1="297.35" x2="428.39" y2="297.37"/>
      <line class="cls-1" x1="84.28" y1="246.35" x2="428.4" y2="246.37"/>
      <line class="cls-1" x1="84.28" y1="195.35" x2="428.4" y2="195.37"/>
      <line class="cls-1" x1="84.29" y1="144.35" x2="428.41" y2="144.37"/>
      <g>
        <g>
          <rect class="cls-3" x="84.09" y="408.38" width="86.01" height="17.89"/>
          <path d="M106.47,408.34v8.34h-1.05v-7.36s-.06,0-.06,0l-2.02,1.5v-1.14l1.81-1.34h1.3Z"/>
          <path d="M111.1,416.8c-.35,0-.69-.06-1.04-.19s-.66-.34-.95-.64c-.29-.3-.51-.7-.69-1.21-.17-.51-.26-1.15-.26-1.92,0-1.47.27-2.6.82-3.4s1.3-1.2,2.24-1.2c.47,0,.88.09,1.25.28.37.19.67.45.91.78.24.33.39.72.45,1.15h-1.04c-.09-.36-.27-.67-.53-.91-.26-.24-.61-.36-1.04-.36-.64,0-1.15.28-1.51.83-.36.55-.55,1.33-.55,2.34h.07c.22-.35.51-.62.87-.82.36-.2.75-.29,1.18-.29.48,0,.91.12,1.31.35.4.24.71.56.95.98.24.42.36.89.36,1.43s-.12.99-.35,1.41c-.23.42-.56.76-.98,1.01s-.92.38-1.48.38ZM111.1,415.86c.34,0,.64-.08.91-.25s.48-.39.64-.67c.16-.28.24-.6.24-.94s-.08-.65-.23-.93c-.15-.28-.36-.5-.62-.66-.27-.17-.57-.25-.9-.25s-.64.09-.91.26-.49.4-.65.68c-.16.28-.24.58-.24.91s.08.63.23.92c.15.28.36.51.63.68.27.17.57.26.91.26Z"/>
          <path d="M118.21,416.8c-.93,0-1.65-.37-2.16-1.12-.51-.75-.77-1.8-.77-3.16s.26-2.4.78-3.16,1.24-1.13,2.16-1.13,1.65.38,2.16,1.13.77,1.81.77,3.16-.26,2.41-.77,3.16c-.51.75-1.23,1.12-2.17,1.12ZM118.21,415.87c.61,0,1.08-.29,1.41-.88.33-.59.5-1.41.5-2.47s-.17-1.89-.5-2.48c-.33-.59-.8-.88-1.41-.88s-1.08.3-1.41.89c-.33.59-.5,1.42-.5,2.48s.17,1.88.5,2.47c.33.59.8.88,1.41.88Z"/>
          <path d="M125.94,416.69v-8.34h1.01v4.84s.12,0,.12,0l2.68-2.76h1.25l-2.62,2.69,2.82,3.57h-1.29l-2.29-2.93-.66.62v2.31h-1.01Z"/>
          <path d="M135.14,416.82c-.4,0-.71-.07-.96-.21-.24-.14-.43-.29-.56-.46-.13-.17-.23-.32-.3-.43h-.11v.97h-.97v-8.34h1.01v3.08s.08,0,.08,0c.07-.11.17-.25.3-.42s.31-.32.55-.46c.24-.13.56-.2.97-.2.52,0,.98.13,1.38.39.4.26.71.63.94,1.12.23.48.34,1.05.34,1.72s-.11,1.24-.34,1.72c-.22.49-.54.86-.93,1.13-.4.26-.86.4-1.38.4ZM134.98,415.92c.39,0,.72-.1.98-.32.26-.21.46-.5.59-.85s.2-.75.2-1.19-.07-.82-.2-1.17c-.13-.35-.33-.63-.59-.83s-.59-.31-.99-.31c-.57,0-1.01.21-1.31.64-.3.43-.45.98-.45,1.67s.15,1.26.45,1.7c.3.44.74.65,1.3.65Z"/>
          <path d="M139.25,419.03v-8.6h.97v1h.11c.07-.11.17-.25.3-.42s.31-.32.55-.46c.24-.13.56-.2.97-.2.52,0,.98.13,1.38.39.4.26.71.63.94,1.12.23.48.34,1.05.34,1.72s-.11,1.24-.34,1.72c-.22.49-.54.86-.93,1.13-.4.26-.86.4-1.38.4-.4,0-.71-.07-.96-.21-.24-.14-.43-.29-.56-.46-.13-.17-.23-.32-.3-.43h-.08v3.31h-1.01ZM142.01,415.92c.39,0,.72-.1.98-.32.26-.21.46-.5.59-.85s.2-.75.2-1.19-.07-.82-.2-1.17c-.13-.35-.33-.63-.59-.83s-.59-.31-.99-.31c-.57,0-1.01.21-1.31.64-.3.43-.45.98-.45,1.67s.15,1.26.45,1.7c.3.44.74.65,1.3.66Z"/>
          <path d="M148.4,416.82c-.64,0-1.18-.14-1.6-.42-.43-.28-.69-.69-.81-1.23l.96-.23c.09.34.26.6.51.76.25.16.56.24.93.24.44,0,.78-.09,1.04-.28.26-.19.39-.41.39-.67,0-.43-.31-.72-.92-.86l-1.04-.25c-1.12-.26-1.68-.83-1.68-1.71,0-.36.1-.67.3-.95.2-.27.48-.49.83-.64.35-.15.75-.23,1.19-.23.65,0,1.15.14,1.5.42.36.28.61.64.75,1.08l-.91.24c-.09-.22-.23-.43-.43-.61-.2-.18-.5-.27-.9-.27-.37,0-.68.09-.93.26-.25.17-.37.39-.37.65,0,.23.08.42.25.56s.43.25.8.34l.95.22c.57.13.99.34,1.26.62.27.28.41.64.41,1.07,0,.37-.1.69-.31.98-.21.29-.5.51-.87.67s-.8.25-1.29.25Z"/>
        </g>
        <g>
          <rect class="cls-3" x="170.1" y="408.38" width="86.01" height="17.89"/>
          <path d="M192.6,408.35v8.34h-1.05v-7.36s-.06,0-.06,0l-2.02,1.5v-1.14l1.81-1.34h1.3Z"/>
          <path d="M196.98,416.8c-.47,0-.9-.09-1.27-.28s-.67-.45-.91-.78-.39-.73-.45-1.17h1.05c.09.37.26.68.52.92.26.25.61.37,1.05.37.63,0,1.14-.28,1.5-.83s.55-1.34.55-2.35h-.07c-.22.34-.51.61-.87.81-.35.2-.75.3-1.19.3-.48,0-.92-.12-1.32-.36-.4-.24-.72-.56-.95-.98-.24-.42-.36-.89-.36-1.42s.12-.99.35-1.42c.23-.43.56-.77.99-1.02.42-.25.92-.37,1.49-.36.34,0,.69.07,1.03.2.34.13.66.34.94.64s.51.7.68,1.2c.17.51.26,1.15.26,1.92,0,1.47-.27,2.61-.82,3.41s-1.29,1.2-2.23,1.2ZM197.07,412.87c.34,0,.65-.09.92-.26.27-.17.49-.4.65-.69.16-.28.24-.59.24-.91s-.08-.62-.23-.9-.37-.5-.63-.68c-.27-.17-.57-.26-.92-.26s-.64.08-.9.25c-.27.17-.48.39-.64.67-.16.28-.24.59-.24.94s.08.65.23.93c.15.28.36.5.62.66.26.16.56.25.9.25Z"/>
          <path d="M201.58,416.69v-.77l2.77-3.01c.31-.34.57-.63.77-.88.21-.25.36-.5.46-.72s.16-.47.16-.73c0-.44-.15-.78-.45-1.04-.3-.25-.67-.38-1.12-.38-.47,0-.85.14-1.13.43-.28.28-.42.66-.42,1.13h-1.02c0-.49.11-.93.34-1.3.23-.37.54-.66.93-.87.39-.21.84-.31,1.33-.31s.94.1,1.32.31c.38.21.68.49.9.84.22.35.33.75.33,1.18,0,.3-.05.6-.16.88-.11.29-.3.61-.57.97s-.66.8-1.15,1.33l-1.83,1.94v.07h3.85v.94h-5.31Z"/>
          <path d="M211.82,416.69v-8.34h1.01v4.84s.12,0,.12,0l2.68-2.76h1.25l-2.62,2.69,2.82,3.57h-1.29l-2.29-2.93-.66.62v2.31h-1.01Z"/>
          <path d="M221.02,416.83c-.4,0-.71-.07-.96-.21-.24-.14-.43-.29-.56-.46-.13-.17-.23-.32-.3-.43h-.11v.97h-.97v-8.34h1.01v3.08s.08,0,.08,0c.07-.11.17-.25.3-.42s.31-.32.55-.46c.24-.13.56-.2.97-.2.52,0,.98.13,1.38.39.4.26.71.63.94,1.12.23.48.34,1.05.34,1.72s-.11,1.24-.34,1.72c-.22.49-.54.86-.93,1.13-.4.26-.86.4-1.38.4ZM220.87,415.93c.39,0,.72-.1.98-.32.26-.21.46-.5.59-.85s.2-.75.2-1.19-.07-.82-.2-1.17c-.13-.35-.33-.63-.59-.83s-.59-.31-.99-.31c-.57,0-1.01.21-1.31.64-.3.43-.45.98-.45,1.67s.15,1.26.45,1.7c.3.44.74.65,1.3.65Z"/>
          <path d="M225.14,419.03v-8.6s.97,0,.97,0v1h.11c.07-.11.17-.25.3-.42s.31-.32.55-.46c.24-.13.56-.2.97-.2.52,0,.98.13,1.38.39.4.26.71.63.94,1.12.23.48.34,1.05.34,1.72s-.11,1.24-.34,1.72c-.22.49-.54.86-.93,1.13-.4.26-.86.4-1.38.4-.4,0-.71-.07-.96-.21-.24-.14-.43-.29-.56-.46-.13-.17-.23-.32-.3-.43h-.08v3.31h-1.01ZM227.89,415.93c.39,0,.72-.1.98-.32.26-.21.46-.5.59-.85s.2-.75.2-1.19-.07-.82-.2-1.17c-.13-.35-.33-.63-.59-.83s-.59-.31-.99-.31c-.57,0-1.01.21-1.31.64-.3.43-.45.98-.45,1.67s.15,1.26.45,1.7c.3.44.74.65,1.3.65Z"/>
          <path d="M234.29,416.83c-.64,0-1.18-.14-1.6-.42-.43-.28-.69-.69-.81-1.23l.96-.23c.09.34.26.6.51.76.25.16.56.24.93.24.44,0,.78-.09,1.04-.28.26-.19.39-.41.39-.67,0-.43-.31-.72-.92-.86l-1.04-.25c-1.12-.26-1.68-.83-1.68-1.71,0-.36.1-.67.3-.95.2-.27.48-.49.83-.64.35-.15.75-.23,1.19-.23.65,0,1.15.14,1.5.42.36.28.61.64.75,1.08l-.91.24c-.09-.22-.23-.43-.43-.61-.2-.18-.5-.27-.9-.27-.37,0-.68.09-.93.26-.25.17-.37.39-.37.65,0,.23.08.42.25.56s.43.25.8.34l.95.22c.57.13.99.34,1.26.62.27.28.41.64.41,1.07,0,.37-.1.69-.31.98-.21.29-.5.51-.87.67s-.8.25-1.29.25Z"/>
        </g>
        <g>
          <rect class="cls-3" x="256.1" y="408.39" width="86.01" height="17.89"/>
          <path d="M270.95,413.37c0-.46.07-.83.22-1.11.15-.28.36-.48.61-.61s.52-.19.79-.19.53.06.76.17c.23.12.49.31.79.57.2.17.36.29.48.36.12.07.25.11.39.11.23,0,.41-.08.55-.25s.2-.41.2-.74h.92c0,.46-.07.83-.22,1.11-.16.28-.36.48-.61.61s-.51.19-.79.19-.54-.06-.77-.18c-.23-.12-.49-.31-.78-.56-.2-.18-.36-.3-.48-.37-.12-.07-.25-.1-.39-.1-.22,0-.4.08-.54.23-.14.15-.21.41-.21.76h-.92Z"/>
          <path d="M278.07,416.7v-.77l2.77-3.01c.31-.34.57-.63.77-.88.21-.25.36-.5.46-.72s.16-.47.16-.73c0-.44-.15-.78-.45-1.04-.3-.25-.67-.38-1.12-.38-.47,0-.85.14-1.13.43-.28.28-.42.66-.42,1.13h-1.02c0-.49.11-.93.34-1.3s.54-.66.93-.87c.39-.21.84-.31,1.33-.31s.94.1,1.32.31c.38.21.68.49.9.84.22.35.33.75.33,1.18,0,.3-.05.6-.16.88-.11.29-.3.61-.57.97s-.66.8-1.15,1.33l-1.83,1.94v.07h3.85v.94h-5.31Z"/>
          <path d="M284.69,415v-.87l3.65-5.78h1.29v5.71h1.13v.94h-1.13v1.7h-1.02v-1.7h-3.92ZM288.62,414.07v-4.38h-.07l-2.73,4.31v.07h2.79Z"/>
          <path d="M295.05,416.81c-.93,0-1.65-.37-2.16-1.12-.51-.75-.77-1.8-.77-3.16s.26-2.4.78-3.16c.52-.75,1.24-1.13,2.16-1.13.93,0,1.65.38,2.16,1.13.52.75.77,1.81.77,3.16s-.26,2.41-.77,3.16c-.51.75-1.23,1.12-2.17,1.12ZM295.05,415.88c.61,0,1.08-.29,1.41-.88s.5-1.41.5-2.47-.17-1.89-.5-2.48-.8-.88-1.41-.89c-.61,0-1.08.3-1.41.89s-.5,1.42-.5,2.48.17,1.88.5,2.47.8.88,1.41.88Z"/>
          <path d="M302.78,416.7v-8.34h1.01v4.84h.12l2.68-2.76h1.25l-2.62,2.69,2.82,3.57h-1.29l-2.29-2.93-.66.62v2.31h-1.01Z"/>
          <path d="M311.98,416.83c-.4,0-.71-.07-.96-.21-.24-.14-.43-.29-.56-.46-.13-.17-.23-.32-.3-.43h-.11v.97h-.97v-8.34h1.01v3.09h.08c.07-.11.17-.25.3-.42s.31-.32.55-.46c.24-.13.56-.2.97-.2.52,0,.98.13,1.38.39.4.26.71.63.94,1.12s.34,1.05.34,1.72-.11,1.24-.34,1.72-.54.86-.93,1.13c-.4.26-.86.4-1.38.4ZM311.82,415.93c.39,0,.72-.1.98-.32.26-.21.46-.5.59-.85s.2-.75.2-1.19-.07-.82-.2-1.17c-.13-.35-.33-.63-.59-.83-.26-.21-.59-.31-.99-.31-.58,0-1.01.21-1.31.64s-.45.98-.45,1.67.15,1.26.45,1.7c.3.44.74.65,1.3.65Z"/>
          <path d="M316.09,419.04v-8.6h.97v1h.11c.07-.11.17-.25.3-.42s.31-.32.55-.46c.24-.13.56-.2.97-.2.52,0,.98.13,1.38.39.4.26.71.63.94,1.12s.34,1.05.34,1.72-.11,1.24-.34,1.72-.54.86-.93,1.13c-.4.26-.86.4-1.38.4-.4,0-.71-.07-.96-.21-.24-.14-.43-.29-.56-.46-.13-.17-.23-.32-.3-.43h-.08v3.31h-1.01ZM318.85,415.93c.39,0,.72-.1.98-.32.26-.21.46-.5.59-.85s.2-.75.2-1.19-.07-.82-.2-1.17c-.13-.35-.33-.63-.59-.83-.26-.21-.59-.31-.99-.31-.58,0-1.01.21-1.31.64s-.45.98-.45,1.67.15,1.26.45,1.7c.3.44.74.65,1.3.65Z"/>
          <path d="M325.24,416.84c-.64,0-1.18-.14-1.6-.42-.43-.28-.69-.69-.81-1.23l.96-.23c.09.34.26.6.51.76.25.16.56.24.93.24.44,0,.79-.09,1.04-.28.26-.19.39-.41.39-.67,0-.43-.31-.72-.92-.86l-1.04-.25c-1.12-.26-1.68-.83-1.68-1.71,0-.36.1-.67.3-.95.2-.27.48-.49.83-.64.35-.15.75-.23,1.19-.23.65,0,1.15.14,1.5.42.36.28.61.64.75,1.08l-.91.24c-.09-.22-.23-.43-.43-.61-.2-.18-.5-.27-.9-.27-.37,0-.68.09-.93.26-.25.17-.37.39-.37.65,0,.23.08.42.25.56s.43.25.8.34l.95.22c.57.13.99.34,1.26.62.27.28.41.64.41,1.07,0,.37-.1.69-.31.98-.21.29-.5.51-.87.67-.37.16-.8.25-1.29.25Z"/>
        </g>
        <g>
          <rect class="cls-3" x="342.11" y="408.4" width="86.01" height="17.89"/>
          <path d="M356.82,413.37c0-.46.07-.83.22-1.11.15-.28.36-.48.61-.61s.52-.19.79-.19.53.06.76.17c.23.12.49.31.79.57.2.17.36.29.48.36.12.07.25.11.39.11.23,0,.41-.08.55-.25s.2-.41.2-.74h.92c0,.46-.07.83-.22,1.11-.16.28-.36.48-.61.61s-.51.19-.79.19-.54-.06-.77-.18c-.23-.12-.49-.31-.78-.56-.2-.18-.36-.3-.48-.37-.12-.07-.25-.1-.39-.1-.22,0-.4.08-.54.23-.14.15-.21.41-.21.76h-.92Z"/>
          <path d="M366.9,416.82c-.54,0-1.03-.09-1.45-.28-.42-.19-.76-.45-1-.78-.25-.33-.38-.72-.4-1.16h1.08c.03.4.21.71.55.94.34.23.74.34,1.21.34.52,0,.95-.13,1.3-.4.34-.27.51-.62.51-1.05s-.17-.82-.5-1.11c-.34-.29-.81-.43-1.43-.43h-.68v-.92h.68c.49,0,.89-.13,1.19-.39.3-.26.46-.6.46-1.03s-.13-.75-.4-1-.63-.38-1.09-.38c-.28,0-.55.05-.8.15-.25.1-.45.25-.61.44-.16.19-.24.42-.25.69h-1.03c.01-.44.15-.82.39-1.15.25-.33.57-.59.98-.78s.85-.28,1.34-.28c.52,0,.97.1,1.34.31.38.21.66.48.87.82.2.34.3.71.3,1.1,0,.47-.12.87-.37,1.2-.25.33-.58.56-1.01.68v.07c.53.09.95.31,1.24.67s.44.8.44,1.33c0,.46-.12.86-.37,1.22-.25.36-.58.64-1.01.85-.43.21-.92.31-1.46.31Z"/>
          <path d="M371.1,415.01v-.87l3.65-5.78h1.29v5.71h1.13v.94h-1.13v1.7h-1.02v-1.7h-3.92ZM375.03,414.07v-4.38h-.07l-2.73,4.31v.07h2.79Z"/>
          <path d="M381.34,416.82c-.49,0-.93-.1-1.32-.29-.39-.19-.7-.46-.93-.79-.23-.33-.36-.71-.38-1.14h1.03c.03.37.2.68.51.92.3.24.67.36,1.08.36.34,0,.64-.08.9-.24.26-.16.47-.37.62-.65s.22-.59.22-.94-.08-.68-.24-.96c-.16-.28-.37-.51-.64-.67-.27-.16-.58-.24-.93-.24-.26,0-.52.04-.78.12-.27.08-.48.19-.64.31l-1-.12.49-4.13h4.39v.93h-3.49l-.29,2.44h.04c.17-.14.39-.26.65-.35.26-.09.54-.14.82-.14.51,0,.97.12,1.37.36.4.24.71.57.94.99.23.42.34.9.34,1.44s-.12,1.01-.36,1.43c-.24.42-.57.75-.99.99-.42.24-.9.36-1.43.36Z"/>
          <path d="M388.91,416.71v-8.34h1.01v4.84h.12l2.68-2.76h1.25s-2.62,2.69-2.62,2.69l2.82,3.57h-1.29s-2.29-2.93-2.29-2.93l-.66.62v2.31h-1.01Z"/>
          <path d="M398.11,416.84c-.4,0-.71-.07-.96-.21-.24-.14-.43-.29-.56-.46-.13-.17-.23-.32-.3-.43h-.11v.97h-.97v-8.34h1.01v3.08h.08c.07-.11.17-.25.3-.42s.31-.32.55-.46c.24-.13.56-.2.97-.2.52,0,.98.13,1.38.39.4.26.71.63.94,1.12s.34,1.05.34,1.72-.11,1.24-.34,1.72-.54.86-.93,1.13c-.4.26-.86.4-1.38.4ZM397.96,415.94c.39,0,.72-.1.98-.32.26-.21.46-.5.59-.85s.2-.75.2-1.19-.07-.82-.2-1.17c-.13-.35-.33-.63-.59-.83-.26-.21-.59-.31-.99-.31-.58,0-1.01.21-1.31.64s-.45.98-.45,1.67.15,1.26.45,1.7c.3.44.74.65,1.3.65Z"/>
          <path d="M402.23,419.05v-8.6h.97v1h.11c.07-.11.17-.25.3-.42s.31-.32.55-.46c.24-.13.56-.2.97-.2.52,0,.98.13,1.38.39.4.26.71.63.94,1.12s.34,1.05.34,1.72-.11,1.24-.34,1.72-.54.86-.93,1.12c-.4.26-.86.4-1.38.4-.4,0-.71-.07-.96-.21-.24-.14-.43-.29-.56-.46-.13-.17-.23-.32-.3-.43h-.08v3.31h-1.01ZM404.98,415.94c.39,0,.72-.1.98-.32.26-.21.46-.5.59-.85s.2-.75.2-1.19-.07-.82-.2-1.17c-.13-.35-.33-.63-.59-.83-.26-.21-.59-.31-.99-.31-.58,0-1.01.21-1.31.64s-.45.98-.45,1.67.15,1.26.45,1.7c.3.44.74.65,1.3.65Z"/>
          <path d="M411.38,416.84c-.64,0-1.18-.14-1.6-.42-.43-.28-.69-.69-.81-1.23l.96-.23c.09.34.26.6.51.76.25.16.56.24.93.24.44,0,.79-.09,1.04-.28.26-.19.39-.41.39-.67,0-.43-.31-.72-.92-.86l-1.04-.25c-1.12-.26-1.68-.83-1.68-1.71,0-.36.1-.67.3-.95.2-.27.48-.49.83-.64.35-.15.75-.23,1.19-.23.65,0,1.15.14,1.5.42.36.28.61.64.75,1.08l-.91.24c-.09-.22-.23-.43-.43-.61-.2-.18-.5-.27-.9-.27-.37,0-.68.09-.93.26-.25.17-.37.39-.37.65,0,.23.08.42.25.56s.43.25.8.34l.95.22c.57.13.99.34,1.26.62.27.28.41.64.41,1.07,0,.37-.1.69-.31.98-.21.29-.5.51-.87.67-.37.16-.8.25-1.29.25Z"/>
        </g>
      </g>
    </g>
    <g>
      <rect class="cls-6" x="129.35" y="172.32" width="30.88" height="226.82"/>
      <rect class="cls-6" x="215.13" y="160.09" width="30.88" height="239.05"/>
      <rect class="cls-6" x="300.92" y="154.48" width="30.88" height="244.66"/>
      <rect class="cls-6" x="386.71" y="155.5" width="30.88" height="243.64"/>
    </g>
    <g>
      <rect class="cls-5" x="266.61" y="236.03" width="30.88" height="163.11"/>
      <rect class="cls-5" x="352.39" y="188.12" width="30.88" height="211.02"/>
    </g>
  </g>
</svg>