<?xml version="1.0" encoding="UTF-8"?>
<svg id="Layer_1" data-name="Layer 1" xmlns="http://www.w3.org/2000/svg" xmlns:xlink="http://www.w3.org/1999/xlink" viewBox="0 0 1198 416">
  <defs>
    <style>
      .cls-1 {
        fill: none;
        stroke: url(#linear-gradient);
        stroke-miterlimit: 10;
        stroke-width: 5px;
      }
    </style>
    <linearGradient id="linear-gradient" x1="199.22" y1="215.34" x2="1053.22" y2="215.34" gradientUnits="userSpaceOnUse">
      <stop offset="0" stop-color="#0082fc"/>
      <stop offset=".56" stop-color="#673cff"/>
      <stop offset="1" stop-color="#cd3cff"/>
    </linearGradient>
  </defs>
  <g>
    <path d="M361.16,105.03v-49.89h19.08c3.59,0,6.58.56,8.96,1.69,2.38,1.13,4.16,2.67,5.36,4.62,1.19,1.95,1.79,4.17,1.79,6.65,0,3.04-.84,5.42-2.53,7.16-1.69,1.74-3.74,2.89-6.18,3.45v.5c1.76.09,3.46.62,5.09,1.61,1.63.98,2.96,2.37,4,4.15,1.04,1.79,1.56,3.94,1.56,6.46s-.62,4.91-1.88,6.96c-1.25,2.05-3.13,3.67-5.64,4.85-2.51,1.18-5.67,1.77-9.49,1.77h-20.12ZM370.1,76.41h9.01c2.37,0,4.34-.64,5.93-1.93,1.58-1.28,2.38-3.03,2.38-5.24,0-1.94-.68-3.54-2.04-4.79s-3.38-1.88-6.06-1.88h-9.21v13.83ZM370.1,97.56h9.78c3.3,0,5.69-.64,7.15-1.91,1.46-1.27,2.19-2.9,2.19-4.89,0-2.23-.81-4.11-2.44-5.62-1.63-1.52-3.83-2.28-6.6-2.28h-10.08v14.7Z"/>
    <path d="M414.66,55.15v49.89h-8.71v-49.89h8.71Z"/>
    <path d="M436.73,105.5c-3.86,0-6.96-1.23-9.31-3.68-2.34-2.46-3.52-5.93-3.52-10.41v-23.81h8.71v22.47c0,2.5.65,4.46,1.96,5.89,1.31,1.43,3.1,2.14,5.37,2.14s4.23-.75,5.73-2.24,2.24-3.6,2.24-6.33v-21.93h8.74v37.43h-8.27l-.07-7.5c-2.23,5.31-6.09,7.97-11.58,7.97Z"/>
    <path d="M482.43,105.8c-3.77,0-7.01-.79-9.73-2.38s-4.8-3.82-6.26-6.7c-1.46-2.88-2.19-6.27-2.19-10.18s.72-7.21,2.16-10.13c1.44-2.91,3.48-5.19,6.13-6.83s5.75-2.46,9.32-2.46c3.04,0,5.85.66,8.45,1.99,2.6,1.33,4.69,3.38,6.28,6.16,1.58,2.78,2.38,6.36,2.38,10.73v2.75h-26.05c.11,3.33,1.04,5.86,2.8,7.6,1.75,1.74,4.02,2.61,6.81,2.61,1.92,0,3.57-.41,4.94-1.24,1.37-.83,2.35-2.03,2.93-3.62l8,1.64c-.89,3.01-2.74,5.44-5.54,7.28-2.8,1.84-6.28,2.76-10.43,2.76ZM472.95,82.83h17.54c-.27-2.68-1.12-4.83-2.56-6.45-1.44-1.62-3.45-2.43-6.04-2.43s-4.76.85-6.31,2.56c-1.55,1.71-2.43,3.81-2.63,6.31Z"/>
    <path d="M523.74,67.6v6.83h-7.23v20.06c0,1.36.28,2.36.85,3s1.52.95,2.86.95c.4,0,.93-.05,1.57-.15.65-.1,1.18-.19,1.61-.28l1.37,6.73c-.96.29-1.94.5-2.95.62-1,.12-1.96.18-2.88.18-3.59,0-6.35-.89-8.27-2.68-1.92-1.79-2.88-4.33-2.88-7.63v-20.79h-5.32v-6.83h5.32v-8.91h8.71v8.91h7.23Z"/>
    <path d="M546.21,105.8c-3.64,0-6.8-.81-9.47-2.43-2.68-1.62-4.75-3.87-6.21-6.76-1.46-2.89-2.19-6.26-2.19-10.09s.73-7.28,2.19-10.2c1.46-2.91,3.53-5.17,6.21-6.78,2.68-1.61,5.84-2.41,9.47-2.41s6.8.8,9.48,2.41c2.68,1.61,4.75,3.87,6.23,6.78,1.47,2.91,2.21,6.31,2.21,10.2s-.74,7.2-2.21,10.09c-1.47,2.89-3.55,5.15-6.23,6.76-2.68,1.62-5.84,2.43-9.48,2.43ZM546.21,98.74c2.03,0,3.72-.55,5.06-1.64,1.34-1.09,2.34-2.57,3.01-4.42.67-1.85,1-3.92,1-6.19s-.33-4.37-1-6.23c-.67-1.85-1.67-3.33-3.01-4.42-1.34-1.09-3.02-1.64-5.06-1.64s-3.68.55-5.02,1.64c-1.34,1.09-2.34,2.57-3,4.42-.66,1.85-.99,3.93-.99,6.23s.33,4.34.99,6.19c.66,1.85,1.66,3.33,3,4.42,1.34,1.09,3.01,1.64,5.02,1.64Z"/>
    <path d="M587.96,105.8c-3.64,0-6.8-.81-9.47-2.43-2.68-1.62-4.75-3.87-6.21-6.76-1.46-2.89-2.19-6.26-2.19-10.09s.73-7.28,2.19-10.2c1.46-2.91,3.53-5.17,6.21-6.78,2.68-1.61,5.84-2.41,9.47-2.41s6.8.8,9.48,2.41c2.68,1.61,4.75,3.87,6.23,6.78,1.47,2.91,2.21,6.31,2.21,10.2s-.74,7.2-2.21,10.09c-1.47,2.89-3.55,5.15-6.23,6.76-2.68,1.62-5.84,2.43-9.48,2.43ZM587.96,98.74c2.03,0,3.72-.55,5.06-1.64,1.34-1.09,2.34-2.57,3.01-4.42.67-1.85,1-3.92,1-6.19s-.33-4.37-1-6.23c-.67-1.85-1.67-3.33-3.01-4.42-1.34-1.09-3.02-1.64-5.06-1.64s-3.68.55-5.02,1.64c-1.34,1.09-2.34,2.57-3,4.42-.66,1.85-.99,3.93-.99,6.23s.33,4.34.99,6.19c.66,1.85,1.66,3.33,3,4.42,1.34,1.09,3.01,1.64,5.02,1.64Z"/>
    <path d="M630.78,67.6v6.83h-7.23v20.06c0,1.36.28,2.36.85,3s1.52.95,2.86.95c.4,0,.93-.05,1.57-.15.65-.1,1.18-.19,1.61-.28l1.37,6.73c-.96.29-1.94.5-2.95.62-1,.12-1.96.18-2.88.18-3.59,0-6.35-.89-8.27-2.68-1.92-1.79-2.88-4.33-2.88-7.63v-20.79h-5.32v-6.83h5.32v-8.91h8.71v8.91h7.23Z"/>
    <path d="M646.52,83.1v21.93h-8.71v-49.89h8.57v19.39c2.28-4.93,6.06-7.4,11.35-7.4,3.86,0,6.96,1.23,9.31,3.68,2.34,2.46,3.52,5.93,3.52,10.41v23.8h-8.74v-22.47c0-2.5-.65-4.46-1.94-5.89-1.29-1.43-3.08-2.14-5.36-2.14s-4.24.75-5.74,2.24c-1.51,1.5-2.26,3.6-2.26,6.33Z"/>
    <path d="M707.52,105.8c-2.37,0-4.5-.43-6.39-1.29-1.9-.86-3.39-2.13-4.49-3.8-1.09-1.67-1.64-3.74-1.64-6.19,0-2.81.69-4.99,2.06-6.55,1.37-1.55,3.15-2.68,5.32-3.38,2.18-.7,4.47-1.18,6.88-1.42,3.26-.36,5.61-.69,7.06-.99,1.45-.3,2.18-1.1,2.18-2.39v-.17c0-1.83-.56-3.25-1.67-4.27s-2.73-1.52-4.85-1.52-3.93.48-5.22,1.44c-1.29.96-2.17,2.05-2.61,3.28l-8.07-1.64c1.09-3.3,3.07-5.76,5.94-7.37s6.18-2.41,9.93-2.41c1.76,0,3.54.21,5.34.62,1.8.41,3.44,1.1,4.94,2.08,1.5.97,2.7,2.29,3.62,3.95.91,1.66,1.37,3.74,1.37,6.24v25.01h-8.34v-5.16h-.33c-.83,1.61-2.14,3-3.95,4.17s-4.16,1.76-7.06,1.76ZM709.76,99.34c2.68,0,4.82-.77,6.41-2.31s2.39-3.35,2.39-5.42v-4.42c-.4.31-1.12.59-2.14.82-1.03.23-2.12.44-3.26.6-1.15.17-2.1.31-2.86.42-1.96.27-3.6.8-4.91,1.61-1.31.8-1.96,2.06-1.96,3.78,0,1.61.59,2.83,1.77,3.67,1.18.84,2.7,1.26,4.55,1.26Z"/>
    <path d="M749.27,105.5c-3.86,0-6.96-1.23-9.31-3.68-2.34-2.46-3.52-5.93-3.52-10.41v-23.81h8.71v22.47c0,2.5.65,4.46,1.96,5.89,1.31,1.43,3.1,2.14,5.37,2.14s4.23-.75,5.73-2.24c1.5-1.5,2.24-3.6,2.24-6.33v-21.93h8.74v37.43h-8.27l-.07-7.5c-2.23,5.31-6.09,7.97-11.58,7.97Z"/>
    <path d="M792.22,105.7c-2.95,0-5.59-.75-7.92-2.26-2.33-1.51-4.17-3.7-5.51-6.58-1.34-2.88-2.01-6.37-2.01-10.48s.68-7.66,2.04-10.53c1.36-2.87,3.21-5.04,5.54-6.51,2.33-1.47,4.94-2.21,7.82-2.21,2.23,0,4.06.37,5.47,1.12,1.42.75,2.54,1.64,3.36,2.68.83,1.04,1.46,1.99,1.91,2.86h.37v-18.65h8.7v49.89h-8.54v-5.93h-.54c-.47.89-1.13,1.85-1.97,2.88-.85,1.03-1.98,1.9-3.4,2.63-1.42.73-3.2,1.09-5.34,1.09ZM794.6,98.54c2.83,0,5.02-1.12,6.56-3.36,1.54-2.24,2.31-5.18,2.31-8.82s-.76-6.56-2.29-8.76c-1.53-2.2-3.72-3.3-6.58-3.3s-5.17,1.14-6.66,3.42c-1.5,2.28-2.24,5.16-2.24,8.64s.75,6.41,2.26,8.72,3.72,3.47,6.65,3.47Z"/>
    <path d="M825.57,62.31c-1.38,0-2.57-.46-3.57-1.39s-1.49-2.06-1.49-3.4.5-2.44,1.49-3.36,2.18-1.39,3.57-1.39,2.61.46,3.6,1.39c.99.93,1.49,2.05,1.49,3.36s-.5,2.47-1.49,3.4c-.99.93-2.19,1.39-3.6,1.39ZM821.22,105.03v-37.43h8.71v37.43h-8.71Z"/>
    <path d="M855.4,105.8c-3.64,0-6.8-.81-9.47-2.43-2.68-1.62-4.75-3.87-6.21-6.76-1.46-2.89-2.19-6.26-2.19-10.09s.73-7.28,2.19-10.2c1.46-2.91,3.53-5.17,6.21-6.78,2.68-1.61,5.84-2.41,9.47-2.41s6.8.8,9.48,2.41c2.68,1.61,4.75,3.87,6.23,6.78,1.47,2.91,2.21,6.31,2.21,10.2s-.74,7.2-2.21,10.09c-1.47,2.89-3.55,5.15-6.23,6.76-2.68,1.62-5.84,2.43-9.48,2.43ZM855.4,98.74c2.03,0,3.72-.55,5.06-1.64,1.34-1.09,2.34-2.57,3.01-4.42.67-1.85,1-3.92,1-6.19s-.33-4.37-1-6.23c-.67-1.85-1.67-3.33-3.01-4.42-1.34-1.09-3.02-1.64-5.06-1.64s-3.68.55-5.02,1.64c-1.34,1.09-2.34,2.57-3,4.42-.66,1.85-.99,3.93-.99,6.23s.33,4.34.99,6.19c.66,1.85,1.66,3.33,3,4.42,1.34,1.09,3.01,1.64,5.02,1.64Z"/>
  </g>
  <g>
    <path d="M41.68,382.1c-4.26,0-8.06-1.03-11.4-3.1-3.34-2.06-5.96-5.01-7.87-8.84s-2.86-8.38-2.86-13.64.95-9.85,2.86-13.68,4.53-6.78,7.87-8.86c3.34-2.08,7.14-3.11,11.4-3.11,3.37,0,6.47.65,9.29,1.96,2.82,1.31,5.19,3.18,7.1,5.61,1.91,2.43,3.15,5.37,3.73,8.8h-6.36c-.47-2.28-1.38-4.2-2.73-5.76-1.35-1.56-2.99-2.74-4.91-3.53-1.92-.79-3.96-1.19-6.13-1.19-2.99,0-5.69.76-8.1,2.28s-4.32,3.74-5.73,6.68c-1.41,2.94-2.11,6.54-2.11,10.8s.71,7.83,2.13,10.76c1.42,2.93,3.33,5.16,5.74,6.66s5.1,2.26,8.07,2.26c2.19,0,4.24-.4,6.14-1.21,1.91-.8,3.54-1.99,4.89-3.55,1.35-1.56,2.26-3.47,2.73-5.73h6.36c-.58,3.37-1.81,6.28-3.7,8.74s-4.24,4.34-7.06,5.66c-2.82,1.32-5.94,1.97-9.36,1.97Z"/>
    <path d="M76.87,331.54v49.89h-6.03v-49.89h6.03Z"/>
    <path d="M97.93,382.3c-2.37,0-4.51-.45-6.45-1.34s-3.46-2.2-4.6-3.92c-1.14-1.72-1.71-3.8-1.71-6.26,0-2.14.42-3.88,1.27-5.22.85-1.34,1.98-2.39,3.4-3.16,1.42-.77,2.98-1.34,4.7-1.72,1.72-.38,3.45-.68,5.19-.9,2.23-.29,4.05-.51,5.46-.67s2.45-.42,3.13-.8c.68-.38,1.02-1.03,1.02-1.94v-.2c0-2.32-.66-4.12-1.98-5.41-1.32-1.28-3.27-1.92-5.86-1.92s-4.81.59-6.33,1.76c-1.52,1.17-2.57,2.42-3.15,3.73l-5.79-1.91c.96-2.28,2.25-4.06,3.88-5.34s3.43-2.19,5.39-2.73c1.96-.54,3.91-.8,5.83-.8,1.25,0,2.67.15,4.27.45,1.6.3,3.14.9,4.62,1.79,1.48.89,2.71,2.22,3.68,3.97.97,1.75,1.46,4.09,1.46,7.01v24.68h-5.93v-5.09h-.4c-.42.87-1.1,1.77-2.04,2.69-.94.93-2.15,1.7-3.65,2.33-1.5.62-3.3.94-5.42.94ZM98.97,376.98c2.23,0,4.12-.44,5.66-1.31,1.54-.87,2.71-2,3.52-3.4.8-1.39,1.21-2.85,1.21-4.37v-5.19c-.25.29-.78.55-1.61.79s-1.77.44-2.83.62-2.09.33-3.08.45c-.99.12-1.78.22-2.36.28-1.45.18-2.81.49-4.07.92-1.26.44-2.27,1.07-3.03,1.91s-1.14,1.97-1.14,3.4c0,1.94.73,3.41,2.19,4.4,1.46.99,3.31,1.49,5.54,1.49Z"/>
    <path d="M138.67,382.23c-3.84,0-7.03-.84-9.58-2.51-2.54-1.67-4.15-4.13-4.82-7.37l5.73-1.37c.54,2.05,1.55,3.56,3.03,4.52,1.48.96,3.34,1.44,5.57,1.44,2.61,0,4.69-.56,6.24-1.67,1.55-1.12,2.33-2.44,2.33-3.98,0-2.57-1.83-4.29-5.49-5.16l-6.23-1.47c-6.7-1.58-10.04-4.99-10.04-10.21,0-2.14.6-4.04,1.81-5.68,1.21-1.64,2.85-2.92,4.94-3.85,2.09-.93,4.46-1.39,7.11-1.39,3.86,0,6.86.84,8.99,2.53,2.13,1.69,3.62,3.85,4.47,6.48l-5.46,1.41c-.51-1.34-1.37-2.56-2.56-3.65-1.19-1.09-3-1.64-5.41-1.64-2.23,0-4.09.51-5.57,1.54-1.48,1.03-2.23,2.32-2.23,3.88,0,1.38.5,2.5,1.51,3.33s2.6,1.51,4.79,2.03l5.66,1.34c3.39.8,5.9,2.05,7.53,3.73,1.63,1.69,2.44,3.81,2.44,6.38,0,2.19-.62,4.13-1.86,5.84-1.24,1.71-2.97,3.05-5.19,4.03-2.22.98-4.79,1.47-7.72,1.47Z"/>
    <path d="M174.87,382.23c-3.84,0-7.03-.84-9.58-2.51-2.54-1.67-4.15-4.13-4.82-7.37l5.73-1.37c.54,2.05,1.55,3.56,3.03,4.52,1.48.96,3.34,1.44,5.57,1.44,2.61,0,4.69-.56,6.24-1.67,1.55-1.12,2.33-2.44,2.33-3.98,0-2.57-1.83-4.29-5.49-5.16l-6.23-1.47c-6.7-1.58-10.04-4.99-10.04-10.21,0-2.14.6-4.04,1.81-5.68,1.21-1.64,2.85-2.92,4.94-3.85,2.09-.93,4.46-1.39,7.11-1.39,3.86,0,6.86.84,8.99,2.53,2.13,1.69,3.62,3.85,4.47,6.48l-5.46,1.41c-.51-1.34-1.37-2.56-2.56-3.65-1.19-1.09-3-1.64-5.41-1.64-2.23,0-4.09.51-5.57,1.54-1.48,1.03-2.23,2.32-2.23,3.88,0,1.38.5,2.5,1.51,3.33,1,.84,2.6,1.51,4.79,2.03l5.66,1.34c3.39.8,5.9,2.05,7.53,3.73,1.63,1.69,2.44,3.81,2.44,6.38,0,2.19-.62,4.13-1.86,5.84-1.24,1.71-2.97,3.05-5.19,4.03-2.22.98-4.79,1.47-7.72,1.47Z"/>
    <path d="M201.38,337.87c-1.14,0-2.12-.39-2.95-1.17-.83-.78-1.24-1.72-1.24-2.81s.41-2.06,1.24-2.83c.83-.77,1.81-1.16,2.95-1.16s2.15.38,2.98,1.16c.83.77,1.24,1.71,1.24,2.83s-.41,2.03-1.24,2.81c-.83.78-1.82,1.17-2.98,1.17ZM198.34,381.43v-37.43h6.03v37.43h-6.03Z"/>
    <path d="M230.18,382.23c-3.39,0-6.37-.8-8.92-2.41-2.56-1.61-4.55-3.86-5.98-6.76-1.43-2.9-2.14-6.27-2.14-10.11s.71-7.32,2.14-10.23c1.43-2.91,3.42-5.17,5.98-6.78,2.55-1.61,5.53-2.41,8.92-2.41,3.62,0,6.79.91,9.53,2.73s4.62,4.36,5.64,7.62l-5.79,1.64c-.56-1.92-1.65-3.5-3.26-4.74-1.62-1.24-3.66-1.86-6.11-1.86s-4.55.65-6.16,1.96-2.8,3.02-3.58,5.14c-.78,2.12-1.17,4.43-1.17,6.93s.39,4.74,1.17,6.85c.78,2.11,1.97,3.81,3.58,5.11,1.61,1.29,3.66,1.94,6.16,1.94s4.6-.64,6.24-1.93c1.64-1.28,2.74-2.94,3.3-4.97l5.76,1.64c-1,3.33-2.89,5.93-5.66,7.82-2.77,1.89-5.98,2.83-9.64,2.83Z"/>
    <path d="M283.88,382.3c-2.37,0-4.51-.45-6.45-1.34s-3.46-2.2-4.6-3.92c-1.14-1.72-1.71-3.8-1.71-6.26,0-2.14.42-3.88,1.27-5.22.85-1.34,1.98-2.39,3.4-3.16,1.42-.77,2.99-1.34,4.7-1.72,1.72-.38,3.45-.68,5.19-.9,2.23-.29,4.05-.51,5.46-.67s2.45-.42,3.13-.8c.68-.38,1.02-1.03,1.02-1.94v-.2c0-2.32-.66-4.12-1.98-5.41-1.32-1.28-3.27-1.92-5.86-1.92s-4.81.59-6.33,1.76c-1.52,1.17-2.57,2.42-3.15,3.73l-5.79-1.91c.96-2.28,2.25-4.06,3.88-5.34,1.63-1.28,3.43-2.19,5.39-2.73,1.96-.54,3.91-.8,5.83-.8,1.25,0,2.67.15,4.27.45,1.6.3,3.14.9,4.62,1.79s2.71,2.22,3.68,3.97c.97,1.75,1.46,4.09,1.46,7.01v24.68h-5.93v-5.09h-.4c-.42.87-1.1,1.77-2.04,2.69-.94.93-2.15,1.7-3.65,2.33-1.5.62-3.3.94-5.42.94ZM284.92,376.98c2.23,0,4.12-.44,5.66-1.31,1.54-.87,2.71-2,3.52-3.4.8-1.39,1.21-2.85,1.21-4.37v-5.19c-.25.29-.78.55-1.61.79s-1.77.44-2.83.62-2.09.33-3.08.45c-.99.12-1.78.22-2.36.28-1.45.18-2.81.49-4.07.92s-2.27,1.07-3.03,1.91c-.76.84-1.14,1.97-1.14,3.4,0,1.94.73,3.41,2.19,4.4,1.46.99,3.31,1.49,5.54,1.49Z"/>
    <path d="M324.59,381.9c-3.77,0-6.83-1.17-9.17-3.52s-3.52-5.88-3.52-10.61v-23.77h6.03v23.27c0,2.88.76,5.13,2.28,6.76,1.52,1.63,3.58,2.44,6.19,2.44s4.92-.88,6.71-2.63c1.8-1.75,2.7-4.22,2.7-7.42v-22.43h6.06v37.43h-5.83v-7c-1.23,2.72-2.83,4.65-4.8,5.78-1.98,1.13-4.19,1.69-6.65,1.69Z"/>
    <path d="M366.48,382.23c-3.1,0-5.85-.79-8.24-2.38-2.39-1.58-4.25-3.83-5.59-6.73-1.34-2.9-2.01-6.34-2.01-10.31s.67-7.37,2.03-10.26c1.35-2.89,3.22-5.12,5.61-6.68s5.13-2.34,8.24-2.34c2.43,0,4.36.4,5.79,1.21,1.43.8,2.53,1.71,3.3,2.73.77,1.02,1.36,1.86,1.76,2.53h.47v-18.45h6.03v49.89h-5.83v-5.79h-.67c-.4.69-1,1.56-1.79,2.59-.79,1.04-1.91,1.96-3.35,2.78s-3.35,1.22-5.74,1.22ZM367.38,376.84c3.39,0,5.99-1.31,7.8-3.92,1.81-2.61,2.71-6,2.71-10.18s-.89-7.47-2.66-10.01c-1.77-2.54-4.39-3.82-7.85-3.82-2.37,0-4.34.61-5.91,1.84-1.57,1.23-2.75,2.89-3.53,4.97-.78,2.09-1.17,4.42-1.17,7.01s.4,4.98,1.19,7.12c.79,2.13,1.98,3.83,3.57,5.09s3.54,1.89,5.86,1.89Z"/>
    <path d="M397.48,337.87c-1.14,0-2.12-.39-2.95-1.17-.83-.78-1.24-1.72-1.24-2.81s.41-2.06,1.24-2.83c.83-.77,1.81-1.16,2.95-1.16s2.15.38,2.98,1.16c.83.77,1.24,1.71,1.24,2.83s-.41,2.03-1.24,2.81c-.83.78-1.82,1.17-2.98,1.17ZM394.43,381.43v-37.43h6.03v37.43h-6.03Z"/>
    <path d="M426.27,382.23c-3.39,0-6.37-.8-8.92-2.41-2.56-1.61-4.55-3.86-5.98-6.76-1.43-2.9-2.14-6.27-2.14-10.11s.71-7.32,2.14-10.23c1.43-2.91,3.42-5.17,5.98-6.78,2.55-1.61,5.53-2.41,8.92-2.41s6.41.8,8.97,2.41c2.57,1.61,4.56,3.87,5.99,6.78s2.14,6.32,2.14,10.23-.71,7.21-2.14,10.11-3.43,5.16-5.99,6.76c-2.57,1.61-5.56,2.41-8.97,2.41ZM426.27,376.84c2.52,0,4.6-.65,6.23-1.94,1.63-1.29,2.83-3,3.62-5.11s1.17-4.39,1.17-6.85-.39-4.78-1.17-6.91c-.78-2.13-1.99-3.85-3.62-5.16s-3.71-1.96-6.23-1.96-4.55.65-6.16,1.96-2.8,3.02-3.58,5.14c-.78,2.12-1.17,4.43-1.17,6.93s.39,4.74,1.17,6.85c.78,2.11,1.97,3.81,3.58,5.11,1.61,1.29,3.66,1.94,6.16,1.94Z"/>
  </g>
  <g>
    <path d="M918.29,380.1v-49.89h6.36v44.26h23.1v5.62h-29.46Z"/>
    <path d="M957.06,380.1v-49.89h30.4v5.62h-24.04v16.27h22.4v5.62h-22.4v16.74h24.34v5.62h-30.7Z"/>
    <path d="M1027.3,380.97c-2.37,0-4.51-.45-6.45-1.34s-3.46-2.2-4.6-3.92c-1.14-1.72-1.71-3.81-1.71-6.26,0-2.14.42-3.88,1.27-5.22.85-1.34,1.98-2.39,3.4-3.16,1.42-.77,2.98-1.34,4.7-1.72,1.72-.38,3.45-.68,5.19-.9,2.23-.29,4.05-.51,5.46-.67s2.45-.42,3.13-.8c.68-.38,1.02-1.03,1.02-1.94v-.2c0-2.32-.66-4.12-1.98-5.41s-3.27-1.93-5.86-1.93-4.81.59-6.33,1.76c-1.52,1.17-2.57,2.42-3.15,3.73l-5.79-1.91c.96-2.28,2.25-4.06,3.88-5.34,1.63-1.28,3.43-2.19,5.39-2.73,1.96-.54,3.91-.8,5.83-.8,1.25,0,2.67.15,4.27.45s3.14.9,4.62,1.79c1.48.89,2.71,2.22,3.68,3.97.97,1.75,1.46,4.09,1.46,7.01v24.67h-5.93v-5.09h-.4c-.42.87-1.11,1.77-2.04,2.7s-2.15,1.7-3.65,2.33c-1.5.62-3.3.94-5.42.94ZM1028.34,375.64c2.23,0,4.12-.43,5.66-1.31s2.71-2,3.52-3.4c.8-1.39,1.21-2.85,1.21-4.37v-5.19c-.25.29-.78.55-1.61.79-.83.23-1.77.44-2.83.62-1.06.18-2.09.33-3.08.45s-1.78.22-2.36.28c-1.45.18-2.81.49-4.07.92-1.26.44-2.27,1.07-3.03,1.91-.76.84-1.14,1.97-1.14,3.4,0,1.94.73,3.41,2.19,4.4s3.31,1.49,5.54,1.49Z"/>
    <path d="M1068.02,380.57c-3.77,0-6.83-1.17-9.17-3.52s-3.52-5.88-3.52-10.61v-23.77h6.03v23.27c0,2.88.76,5.13,2.28,6.76,1.52,1.63,3.58,2.44,6.19,2.44s4.92-.88,6.71-2.63,2.7-4.22,2.7-7.42v-22.43h6.06v37.43h-5.83v-7c-1.23,2.72-2.83,4.65-4.8,5.78s-4.19,1.69-6.65,1.69Z"/>
    <path d="M1109.9,380.9c-3.1,0-5.85-.79-8.24-2.38-2.39-1.58-4.25-3.83-5.59-6.73-1.34-2.9-2.01-6.34-2.01-10.31s.67-7.37,2.03-10.26c1.35-2.89,3.22-5.12,5.61-6.68,2.39-1.56,5.13-2.34,8.24-2.34,2.43,0,4.36.4,5.79,1.21,1.43.8,2.53,1.71,3.3,2.73.77,1.02,1.36,1.86,1.76,2.53h.47v-18.45h6.03v49.89h-5.83v-5.79h-.67c-.4.69-1,1.56-1.79,2.59s-1.91,1.96-3.35,2.78-3.35,1.22-5.74,1.22ZM1110.81,375.51c3.39,0,5.99-1.31,7.8-3.92,1.81-2.61,2.71-6,2.71-10.18s-.89-7.47-2.66-10.01c-1.77-2.54-4.39-3.82-7.85-3.82-2.37,0-4.34.61-5.91,1.84-1.57,1.23-2.75,2.89-3.53,4.97-.78,2.09-1.17,4.42-1.17,7.01s.4,4.98,1.19,7.12c.79,2.13,1.98,3.83,3.57,5.09s3.54,1.89,5.86,1.89Z"/>
    <path d="M1140.91,336.54c-1.14,0-2.12-.39-2.95-1.17-.83-.78-1.24-1.72-1.24-2.81s.41-2.06,1.24-2.83c.83-.77,1.81-1.15,2.95-1.15s2.15.38,2.98,1.15c.83.77,1.24,1.71,1.24,2.83s-.41,2.03-1.24,2.81c-.83.78-1.82,1.17-2.98,1.17ZM1137.86,380.1v-37.43h6.03v37.43h-6.03Z"/>
    <path d="M1169.7,380.9c-3.39,0-6.37-.8-8.92-2.41-2.56-1.61-4.55-3.86-5.98-6.76-1.43-2.9-2.14-6.27-2.14-10.11s.71-7.32,2.14-10.23c1.43-2.91,3.42-5.17,5.98-6.78,2.55-1.61,5.53-2.41,8.92-2.41s6.41.8,8.97,2.41c2.57,1.61,4.56,3.87,5.99,6.78,1.43,2.91,2.14,6.32,2.14,10.23s-.71,7.21-2.14,10.11c-1.43,2.9-3.43,5.16-5.99,6.76-2.57,1.61-5.56,2.41-8.97,2.41ZM1169.7,375.51c2.52,0,4.6-.65,6.23-1.94s2.83-3,3.62-5.11c.78-2.11,1.17-4.39,1.17-6.85s-.39-4.78-1.17-6.91c-.78-2.13-1.99-3.85-3.62-5.16-1.63-1.3-3.71-1.96-6.23-1.96s-4.55.65-6.16,1.96c-1.61,1.31-2.8,3.02-3.58,5.14-.78,2.12-1.17,4.43-1.17,6.93s.39,4.74,1.17,6.85c.78,2.11,1.97,3.81,3.58,5.11s3.66,1.94,6.16,1.94Z"/>
  </g>
  <path class="cls-1" d="M201.72,303.51v-74.34h849v74.34M615,229.17v-102"/>
</svg>